<svg xmlns="http://www.w3.org/2000/svg" viewBox="0 0 2532 1220" width="2532" height="1220"><defs><image width="2532" height="1220" id="img1"></image></defs><style>.a{fill:#fff}</style><use href="#img1" x="0" y="0"></use><path fill-rule="evenodd" class="a" d="m0 0h2532v1220h-2532zm1563.5 278.7c-3.8 0.1-13.3 0.7-21 1.3-7.7 0.6-21.7 2-31 3.1-9.3 1.1-24.2 3.2-33 4.5-8.8 1.4-22.5 3.8-30.5 5.5-8 1.6-24.6 5.6-37 8.8-12.4 3.3-32.4 9.2-44.5 13.1-12.1 4-30.8 10.7-41.5 15-10.7 4.3-24.1 9.8-29.8 12.4-5.6 2.5-18.6 8.8-28.9 13.9-10.4 5.1-24.2 12.2-30.7 15.7-6.6 3.6-20.2 11.7-30.2 18-10.1 6.3-23.9 15.4-30.6 20.2-6.8 4.8-18.4 13.5-25.8 19.4-7.4 5.9-21.6 18.9-31.6 28.8-9.9 10-21.9 22.6-26.5 28.1-4.7 5.5-13 15.9-18.4 23-5.4 7.1-14.5 20-20 28.5-5.6 8.5-12.2 18.9-14.7 23-2.5 4.1-7.7 13.1-11.5 20-3.9 6.9-11.4 21.3-16.8 32-5.4 10.7-12.7 26-16.2 34-3.6 8-9.8 22.8-13.8 33-4 10.2-10.5 27.7-14.5 39-3.9 11.3-10.1 30.2-13.6 42-3.6 11.8-9 31-11.9 42.5-3 11.5-7.4 31.1-9.9 43.5-2.5 12.4-5.2 27.2-6.1 33-0.8 5.8-1.8 15.7-2.2 22-0.3 6.3-0.3 12.7 0 14.3 0.4 1.5 1 2.7 1.5 2.7 0.4 0.1 4.1-7.7 8.2-17.2 4.1-9.5 12.9-28.3 19.6-41.8 6.7-13.5 16.3-31.5 21.2-40 4.9-8.5 14-23.4 20.2-33 6.2-9.6 15.4-23.4 20.4-30.5 5-7.1 14.7-20.2 21.5-29 6.8-8.8 14.7-18.7 17.5-22 2.8-3.3 10.2-11.8 16.6-19 6.3-7.1 20-21.7 30.5-32.4 10.5-10.6 25.5-25.3 33.5-32.5 8-7.2 17.4-15.7 21-18.7 3.6-3.1 12.1-10.1 19-15.6 6.9-5.4 19.9-15.5 29-22.4 9.1-6.8 25.3-18.2 36-25.4 10.7-7.2 25.6-16.7 33-21.1 7.4-4.5 18.5-11 24.5-14.4 6-3.5 19.1-10.4 29-15.5 9.9-5 26.1-12.7 36-17.2 9.9-4.4 21.8-9.6 26.4-11.4l8.3-3.4c-0.8-8.5-0.7-13.2-0.2-16 0.4-2.7 1.9-7.7 3.1-11 1.7-4.4 3.9-7.6 8.3-12 3.4-3.3 8.6-7.3 11.6-8.9 5-2.7 6.5-2.9 16-3 10.2-0.1 10.8 0 18 3.5 4.6 2.2 8.9 5.2 11 7.7 1.9 2.1 4.8 6.6 6.4 9.8 2.6 5 3.1 7.4 3.5 15.9 0.4 9.5 0.2 10.3-2.6 16.5-1.6 3.6-5 8.5-7.4 11-2.4 2.4-6.6 5.4-9.4 6.6-2.7 1.2-7.2 2.5-10 2.9-2.8 0.4-7.9 0.1-11.5-0.5-3.6-0.7-9-2.3-12-3.7l-5.5-2.5c-19.4 8.1-31.3 13.4-39 17-7.7 3.6-21.2 10.3-30 15-8.8 4.7-23.4 13.1-32.5 18.7-9.1 5.7-24.2 15.8-33.5 22.5-9.3 6.8-20.4 15-24.5 18.3-4.1 3.4-13.6 11.3-21 17.6-7.4 6.3-24.6 22.5-38.1 36-13.5 13.5-29.3 30-35 36.6-5.8 6.6-13.4 15.6-17.1 20-3.6 4.4-12.8 16.3-20.4 26.5-7.7 10.2-19.6 27.1-26.5 37.5-7 10.5-16.6 25.8-21.4 34-4.8 8.3-12.1 21.3-16.3 29-4.1 7.7-8.5 16.5-9.8 19.5-1.4 3-2.1 5.9-1.7 6.3 0.5 0.4 7.8-0.4 16.3-1.7 8.5-1.4 20.2-3.5 26-4.5 5.8-1.1 14.8-2.9 20-4.1 5.2-1.1 14.7-3.4 21-5.1 6.3-1.6 21.4-6.3 33.5-10.4 12.1-4 30.5-10.7 41-14.8 10.5-4.1 24.2-9.8 30.5-12.7 6.3-2.8 20.7-9.9 32-15.7 11.3-5.8 27-14.5 35-19.3l14.5-8.8c1-16 1.6-22.1 2-23.7 0.5-1.6 1.9-5.5 3.2-8.5 1.4-3 4.4-7.9 6.6-10.8 2.3-2.9 6.2-6.6 8.7-8.3 2.5-1.6 6.8-3.6 9.5-4.5 2.8-0.8 7.5-1.4 10.5-1.4 3 0 8.4 0.8 12 1.9 3.6 1.1 9.3 3.8 12.8 6.1 6 3.9 6.3 4.2 8.5 11.3 1.6 5.3 2.2 9.6 2.2 16.2-0.1 7.8-0.5 9.8-3 15-1.6 3.3-5.1 8.1-7.7 10.8-2.6 2.6-7.2 5.8-10 7.2-2.9 1.3-8.6 3.1-12.5 4-4 0.8-8.9 1.5-10.8 1.5-1.9 0-6.8-0.8-10.7-1.7l-7.3-1.6c-31.8 20.6-48.9 31.4-58.5 37.1-9.6 5.8-28.1 15.8-41 22.3-12.9 6.4-28.2 13.8-34 16.4-5.8 2.7-14.8 6.5-20 8.7-5.2 2.1-17.8 7-28 10.7-10.2 3.8-24.1 8.6-31 10.9-6.9 2.2-17.2 5.4-23 7.1-5.8 1.6-19.7 5.3-31 8.3l-20.5 5.3c-15.6 15.5-22.5 23.6-25.4 28-2.9 4.4-6.7 11.1-8.6 15-1.9 3.9-4.9 11.7-6.8 17.5-1.9 5.8-3.2 10.9-2.8 11.4 0.4 0.6 7.6 0.7 18.1 0.3 9.6-0.4 23.6-1.2 31-1.7 7.4-0.6 18.7-1.7 25-2.6 6.3-0.8 17.1-2.4 24-3.5 6.9-1.1 18.3-3.1 25.5-4.5 7.2-1.4 19.3-4.1 27-6 7.7-2 22.1-6 32-8.9 9.9-3 23.6-7.4 30.5-9.8 6.9-2.5 18.1-6.7 25-9.5 6.9-2.7 19.4-8.2 27.8-12.1 8.3-3.9 19.1-9.2 23.9-11.7 4.9-2.6 11.7-6.2 15.3-8.2 3.6-2 11.5-6.5 17.5-10.1 6-3.5 16.2-9.9 22.5-14.1 6.3-4.3 17.8-12.4 25.5-18.2 7.7-5.8 18.3-14 23.5-18.2 5.2-4.3 18-15.9 28.4-25.9 10.4-10 23.5-23.2 29-29.2 5.6-6.1 13.9-15.5 18.5-21 4.5-5.5 12.7-15.9 18-23 5.3-7.1 12.3-16.8 15.6-21.5 3.2-4.7 11-17 17.3-27.5 6.2-10.5 16-28.5 21.7-40 5.7-11.5 13-27.3 16.3-35 3.3-7.7 8.9-22.1 12.4-32 3.6-9.9 8.6-25 11.1-33.5 2.5-8.5 6.2-22 8.2-30 2-8 4.8-19.7 6.1-26 1.4-6.3 4-20.9 5.9-32.5 1.9-11.6 4.3-29.1 5.4-39 1.1-9.9 2.5-27.4 3.1-39 0.5-11.6 1-28 1-36.5 0-8.5-0.3-19.7-0.7-24.8l-0.8-9.2c-31 0.3-43.2 0.5-47 0.7z"></path></svg>