<svg xmlns="http://www.w3.org/2000/svg" viewBox="0 0 65 64" width="65" height="64"><style>.a{fill:#7ac15c}</style><path class="a" d="m64.1 0c-1.5-0.1-61.9-2.1-63.5 60.8 1.4-4.8 3.3-9.2 5.9-13.3q4.7-7.6 12-14.4c4.4-4.1 9.4-7.8 14.9-11.1 3.7-2.2 7.4-4.1 11-5.7-0.2-0.6-0.1-1.3 0.1-1.9 0.7-1.7 2.7-2.5 4.4-1.9 1.7 0.7 2.5 2.7 1.8 4.4-0.6 1.7-2.6 2.5-4.3 1.8q-0.6-0.3-1.1-0.7c-3.4 1.8-6.8 3.9-10.4 6.4-5 3.6-9.5 7.5-13.4 11.7-4.2 4.6-7.6 9.3-10.1 14.2q-0.4 0.8-0.7 1.6 2.3-0.4 5-1c3.4-0.8 6.1-1.6 8.6-2.4 2.7-0.9 5.6-2 8.3-3.4 1.9-0.9 3.5-1.9 4.9-2.9-0.4-0.8-0.5-1.8-0.1-2.7 0.7-1.7 2.6-2.5 4.3-1.8 1.7 0.7 2.6 2.6 1.9 4.3-0.7 1.7-2.6 2.5-4.4 1.8q-0.3-0.1-0.6-0.3c-1.5 1.1-3.1 2.3-4.9 3.5-2.8 1.7-5.8 3-8.3 4.1-2.5 1.1-5.3 2.1-8.8 3.2-2.9 0.9-5.4 1.6-7.8 2.1q-1.2 3.3-1.9 6.8c59.5-3.9 57.2-62.5 57.2-63.2z"></path></svg>