<svg xmlns="http://www.w3.org/2000/svg" xmlns:xlink="http://www.w3.org/1999/xlink" width="101" height="88" viewBox="0 0 101 88"><defs><clipPath id="clip-path"><rect id="Rectangle_19" data-name="Rectangle 19" width="101" height="88" transform="translate(96 122)" fill="#04a5d9" stroke="rgba(0,0,0,0)" stroke-miterlimit="10" stroke-width="1"></rect></clipPath></defs><g id="Mask_Group_1" data-name="Mask Group 1" transform="translate(-96 -122)" clip-path="url(#clip-path)"><g id="Vector_Smart_Object" data-name="Vector Smart Object" transform="translate(-459.632 -175.197)"><g id="Group_39" data-name="Group 39"><g id="Group_28" data-name="Group 28"><path id="Path_51" data-name="Path 51" d="M650.12,382.2A1.3,1.3,0,0,1,649,381.55a17.286,17.286,0,0,0-28.473-2.347l-.337.413h22.955a1.289,1.289,0,0,1,0,2.579H612.565a1.289,1.289,0,0,1,0-2.579h4.512l.074-.117a20.041,20.041,0,0,1,15.27-9.219l.232-.018v-11.3l-.274.024c-.466.042-.884.062-1.28.062a14.653,14.653,0,0,1-10.455-4.344,14.859,14.859,0,0,1-4.061-13.325,1.28,1.28,0,0,1,1.014-1.021,14.866,14.866,0,0,1,2.844-.277,14.63,14.63,0,0,1,11.759,5.858l.452.6V331.621l-.1-.076a13.354,13.354,0,0,1,.677-21.637,1.278,1.278,0,0,1,1.437,0,13.351,13.351,0,0,1,.653,21.668l-.1.076v7.073l.462-.7a18.669,18.669,0,0,1,2.36-2.912,18.235,18.235,0,0,1,13-5.392,18.516,18.516,0,0,1,3.5.335,1.279,1.279,0,0,1,1.016,1.018,18.4,18.4,0,0,1-14.4,21.594,1.219,1.219,0,0,1-.254.026,1.29,1.29,0,0,1-.251-2.554,15.82,15.82,0,0,0,12.558-17.5l-.024-.2-.2-.024a16,16,0,0,0-1.948-.12,15.809,15.809,0,0,0-15.8,15.686.384.384,0,0,0-.016.082v22.2l.233.018a20.054,20.054,0,0,1,15.3,9.227l.074.117h4.512a1.289,1.289,0,0,1,0,2.578Zm-29.674-39.535a12.354,12.354,0,0,0-1.274.066l-.2.021-.021.2a12.232,12.232,0,0,0,3.516,9.931,12.174,12.174,0,0,0,9.9,3.522l.2-.022.021-.2a12.328,12.328,0,0,0,.064-1.355V354.8a12.229,12.229,0,0,0-12.208-12.142Zm13.345-29.955a10.807,10.807,0,0,0,0,16.566l.162.135.161-.135a10.8,10.8,0,0,0,0-16.566l-.162-.135Z" fill="#04a5d9" stroke="rgba(0,0,0,0)" stroke-miterlimit="10" stroke-width="1"></path></g><g id="Group_29" data-name="Group 29"><path id="Path_52" data-name="Path 52" d="M564.161,382.2a4.543,4.543,0,0,1-4.529-4.546V315.978a4.543,4.543,0,0,1,4.529-4.546h29.514a4.542,4.542,0,0,1,4.528,4.546v61.673a4.542,4.542,0,0,1-4.528,4.546Zm-1.958-4.546a1.966,1.966,0,0,0,1.958,1.968h29.514a1.965,1.965,0,0,0,1.957-1.968V321H562.2v48.477h27.742a1.289,1.289,0,0,1,0,2.578H562.2Zm1.958-63.641a1.965,1.965,0,0,0-1.958,1.968v2.448h33.43v-2.448a1.965,1.965,0,0,0-1.957-1.968Z" fill="#04a5d9" stroke="rgba(0,0,0,0)" stroke-miterlimit="10" stroke-width="1"></path></g><g id="Group_30" data-name="Group 30"><path id="Path_53" data-name="Path 53" d="M577.347,377.128a1.289,1.289,0,0,1,0-2.578h3.139a1.289,1.289,0,0,1,0,2.578Z" fill="#04a5d9" stroke="rgba(0,0,0,0)" stroke-miterlimit="10" stroke-width="1"></path></g><g id="Group_31" data-name="Group 31"><path id="Path_54" data-name="Path 54" d="M602.978,317.245a1.289,1.289,0,0,1-1.285-1.29,8.061,8.061,0,0,0-8.041-8.063,1.289,1.289,0,0,1,0-2.578,10.639,10.639,0,0,1,10.612,10.642A1.289,1.289,0,0,1,602.978,317.245Z" fill="#04a5d9" stroke="rgba(0,0,0,0)" stroke-miterlimit="10" stroke-width="1"></path></g><g id="Group_32" data-name="Group 32"><path id="Path_55" data-name="Path 55" d="M609.079,317.245a1.289,1.289,0,0,1-1.285-1.29,14.177,14.177,0,0,0-14.142-14.18,1.289,1.289,0,0,1,0-2.578,16.755,16.755,0,0,1,16.713,16.758A1.289,1.289,0,0,1,609.079,317.245Z" fill="#04a5d9" stroke="rgba(0,0,0,0)" stroke-miterlimit="10" stroke-width="1"></path></g><g id="Group_33" data-name="Group 33"><path id="Path_56" data-name="Path 56" d="M569.635,338.487a1.289,1.289,0,0,1,0-2.578H588.2a1.289,1.289,0,0,1,0,2.578Z" fill="#04a5d9" stroke="rgba(0,0,0,0)" stroke-miterlimit="10" stroke-width="1"></path></g><g id="Group_34" data-name="Group 34"><path id="Path_57" data-name="Path 57" d="M580.1,331.493a1.289,1.289,0,0,1,0-2.578H588.2a1.289,1.289,0,0,1,0,2.578Z" fill="#04a5d9" stroke="rgba(0,0,0,0)" stroke-miterlimit="10" stroke-width="1"></path></g><g id="Group_35" data-name="Group 35"><path id="Path_58" data-name="Path 58" d="M569.635,331.493a1.289,1.289,0,0,1,0-2.578h3.491a1.289,1.289,0,0,1,0,2.578Z" fill="#04a5d9" stroke="rgba(0,0,0,0)" stroke-miterlimit="10" stroke-width="1"></path></g><g id="Group_36" data-name="Group 36"><path id="Path_59" data-name="Path 59" d="M569.635,345.481a1.289,1.289,0,0,1,0-2.578h11.6a1.289,1.289,0,0,1,0,2.578Z" fill="#04a5d9" stroke="rgba(0,0,0,0)" stroke-miterlimit="10" stroke-width="1"></path></g><g id="Group_37" data-name="Group 37"><path id="Path_60" data-name="Path 60" d="M572.872,362.02a4.538,4.538,0,0,1,0-9.076,1.289,1.289,0,0,1,0,2.578,1.96,1.96,0,1,0,1.952,1.958,1.285,1.285,0,1,1,2.57,0A4.536,4.536,0,0,1,572.872,362.02Z" fill="#04a5d9" stroke="rgba(0,0,0,0)" stroke-miterlimit="10" stroke-width="1"></path></g><g id="Group_38" data-name="Group 38"><path id="Path_61" data-name="Path 61" d="M584.962,362.02a1.289,1.289,0,0,1,0-2.579,1.96,1.96,0,1,0-1.951-1.961,1.285,1.285,0,1,1-2.571,0,4.523,4.523,0,1,1,4.522,4.539Z" fill="#04a5d9" stroke="rgba(0,0,0,0)" stroke-miterlimit="10" stroke-width="1"></path></g></g></g></g></svg>