<svg xmlns="http://www.w3.org/2000/svg" viewBox="0 0 596 253" width="596" height="253"><style>.a{fill:#04a5d9}.b{fill:#7ac15c}.c{fill:#a7a9ac}</style><path class="a" d="m87.8 150.4c8.8 0 17 0 26.1 0-0.4 9 0.1 18-1.5 26.5-2.8 14.8-16.1 26.5-33.2 27.8-15.5 1.2-31.3 0.9-46.8-0.8-15.3-1.6-32.6-14.7-32.1-37.8 0.6-27.7 0.1-55.3 0.1-83 0-23.9 10.9-38.4 34.7-41.3 15.5-2 31.6-1.2 47.2 0.4 15.6 1.6 32.3 15.1 31.3 37.8-0.3 4.8-0.1 9.7-0.1 14.8-8.6 0-16.9 0-25.7 0 0-3.9 0.1-7.7 0-11.5-0.2-11.3-6.1-18.5-17.3-19.4-9.2-0.7-18.7-0.6-27.9 0.2-9.3 0.7-15.4 7.2-15.9 16.5-0.5 9.3-0.3 18.7-0.3 28 0 17.7 0 35.4 0 53.1 0 12.9 6.2 20 19 20.8 8.5 0.6 17.1 0.5 25.6-0.3 10.4-0.9 16.4-8 16.8-18.4 0.1-4.3 0-8.6 0-13.4z"></path><path class="a" d="m574.1 204.1c-8.4 0-16.3 0-24.9 0 0-2 0-3.8 0-5.7q0-40.3 0-80.6c0-14.6-6.2-20.6-21-20.5-7.6 0-14.6 1.8-20.5 7-2.6 2.2-3.9 4.7-3.9 8.3 0.2 28.4 0.1 56.9 0.1 85.4 0 1.9 0 3.8 0 5.9-8.4 0-16.4 0-24.7 0 0-42.3 0-84.5 0-126.9 5.7 0 11.1 0 17 0 1 3.3 2.1 6.7 3.3 10.8 1.4-1 2.6-1.7 3.6-2.5 14.5-11.4 31-12.5 47.7-7.9 14.6 4 22.6 15.8 23 30.3 0.9 32 0.3 64 0.3 96.4z"></path><path class="a" d="m432.5 203.8c0-53.9 0-73.1 0-127.2 8.5 0 16.7 0 25.3 0 0 53.9 0 73 0 127.2-8.1 0-16.4 0-25.3 0z"></path><path class="a" d="m197.6 76.1c0 7.2 0 14.2 0 21.8-5.5 0-10.8-0.6-16 0.2-5.6 0.8-11.3 2.2-16.3 4.7-7.8 3.9-11.8 9.9-11.5 19.7 0.7 25 0.2 50.2 0.2 75.2 0 2 0 3.9 0 6.2-8.4 0-16.5 0-24.8 0 0-42.3 0-84.4 0-126.8 5.7 0 11.2 0 17.2 0 1.1 4.5 2.3 9.1 3.6 14.5 13.2-13.4 29-18 47.6-15.5z"></path><path class="a" d="m302.4 112.8c-0.3-17.9-12.1-33-29.8-36-10.4-1.8-21.5-1.5-32.2-1-19.9 0.9-35.1 16.8-35.8 36.7-0.3 9.3 0 18.7 0 28h-0.1c0 9-0.2 18 0 27 0.5 18.7 11.9 33.3 30.2 36.6 10.3 1.8 21.2 1.5 31.8 1.1 20.2-0.7 35.6-16.7 35.9-36.9q0.4-27.8 0-55.5zm-24.9 27.8q0 13-0.2 25.9c-0.2 9.5-7.1 16.2-16.6 16.7-4.8 0.3-9.7 0.3-14.5 0-4.6-0.3-8.6-2.1-11.5-4.9-2.8-2.8-4.6-6.7-4.8-11.3-0.5-9-0.3-27-0.3-27 0-7.6-0.2-15.1 0-22.7q0-2.6 0.4-4.9c1-8.5 7.7-14.4 16.5-14.9q0.8 0 1.5 0 0.9-0.1 1.7-0.2c3.1-0.2 6.2-0.1 9.3 0.2q1 0 2 0.1c9.2 0.6 15.8 6.9 16.2 16q0 0.4 0 0.8h0.1q0 0.7 0 1.4c0.2 6.3 0.2 15.3 0.2 20.6q0 2.1 0 4.2z"></path><path class="a" d="m415.9 108.8c-0.9-16.9-14-31.3-28-32.9-17.1-1.8-34-1.6-47.8 11.1-0.1 0.1-0.6 0.1-1.1 0-0.9-3.3-1.9-6.6-2.8-10-5.9 0-11.4 0-17.4 0 0 1.8 0 3.2 0 4.6q0 83.1 0 166.1c0 1.6 0.3 3.2 0.5 4.8q12.1 0 24.2 0c0.1-1.9 0.3-3.8 0.3-5.7q0.1-21.8 0-43.5c0-1.7 0-3.4 0-6.1 13.8 10.6 28.7 8.9 43.3 7.8 14.2-1 28.3-15.5 28.7-31.9 0-13.7 0-54 0.1-64.3zm-24.5 31.8q0 13-0.3 25.9c-0.1 9.2-6.7 15.7-15.7 16.6q-0.2 0-0.3 0-0.3 0.1-0.6 0.1-0.2 0-0.3 0-0.4 0.1-0.8 0.1-1.2 0-2.4 0.1-5.5 0.1-11-0.2c-7.2-0.5-12.8-4.5-15.1-10.6-0.6-1.2-0.9-2.5-1-3.7q0-0.3 0-0.6-0.1-0.6-0.1-1.2 0-0.4 0-0.8-0.1-0.7-0.1-1.4c-0.2-6.1-0.2-14.8-0.2-20.1q0-2.4 0-4.7 0-12.9 0.2-25.9 0.1-1.5 0.3-2.9c0.1-0.9 0.4-1.8 0.7-2.7 2.3-6.4 8.2-10.7 15.7-11.1 4.8-0.3 9.6-0.3 14.5 0 9.1 0.7 15.7 7 16.1 16.1q0 0.4 0.1 0.8 0 0.7 0 1.5c0.2 6.4 0.2 15.5 0.2 20.7q0 2 0 4 0.1 0 0.1 0z"></path><path class="b" d="m497.1 0c-1.5-0.1-61.9-2.1-63.5 60.8 1.4-4.8 3.3-9.2 5.9-13.3 3.1-5.1 7.1-9.9 12-14.4 4.4-4.1 9.4-7.8 14.9-11.1 3.7-2.2 7.4-4.1 11-5.7-0.2-0.6-0.1-1.3 0.1-1.9 0.7-1.7 2.7-2.5 4.4-1.9 1.7 0.7 2.5 2.7 1.8 4.4-0.6 1.7-2.6 2.5-4.3 1.8q-0.6-0.3-1.1-0.7c-3.4 1.8-6.8 3.9-10.4 6.4-5 3.6-9.5 7.5-13.4 11.7-4.2 4.6-7.6 9.3-10.1 14.2q-0.4 0.8-0.7 1.6 2.3-0.4 5-1c3.4-0.8 6.1-1.6 8.6-2.4 2.7-0.9 5.6-2 8.3-3.4 1.9-0.9 3.5-1.9 4.9-2.9-0.4-0.8-0.5-1.8-0.1-2.7 0.7-1.7 2.6-2.5 4.3-1.8 1.7 0.7 2.6 2.6 1.9 4.3-0.7 1.7-2.6 2.5-4.4 1.8q-0.3-0.1-0.6-0.3c-1.5 1.1-3.1 2.3-4.9 3.5-2.8 1.7-5.8 3-8.3 4.1-2.5 1.1-5.3 2.1-8.8 3.2-2.9 0.9-5.4 1.6-7.8 2.1q-1.2 3.3-1.9 6.8c59.5-3.9 57.2-62.5 57.2-63.2z"></path><path class="c" d="m584.9 80.9q-2.3 0-4.3-0.8-1.9-0.8-3.4-2.2-1.4-1.5-2.2-3.4-0.8-2-0.8-4.3 0-2.3 0.8-4.3 0.8-1.9 2.2-3.4 1.5-1.4 3.4-2.3 2-0.8 4.3-0.8 2.2 0 4.2 0.8 1.9 0.8 3.4 2.3 1.5 1.4 2.3 3.4 0.9 1.9 0.8 4.3 0.1 2.3-0.7 4.3-0.8 1.9-2.3 3.4-1.4 1.4-3.4 2.2-1.9 0.8-4.3 0.8zm0-1.8q1.9 0 3.5-0.6 1.6-0.7 2.8-1.9 1.2-1.2 1.9-2.8 0.7-1.7 0.7-3.6 0-1.9-0.7-3.5-0.6-1.7-1.8-2.9-1.2-1.2-2.8-1.9-1.7-0.8-3.6-0.7-2.5 0-4.5 1.1-2.1 1.2-3.2 3.2-1.2 2.1-1.2 4.7 0 2.5 1.2 4.5 1.1 2.1 3.1 3.3 2.1 1.1 4.6 1.1zm-4.1-2.5v-12.9h3.9q2.4 0 3.5 1 1.1 1 1.1 2.9 0 1.3-0.7 2.1-0.7 0.8-1.6 1.2l3.4 5.7h-2.6l-2.8-5h-1.9v5h-2.3zm2.3-6.9h1.5q1.2 0 1.8-0.6 0.6-0.5 0.6-1.5 0-1-0.6-1.5-0.5-0.4-1.8-0.4h-1.4z"></path></svg>