<svg xmlns="http://www.w3.org/2000/svg" width="90" height="82" viewBox="0 0 90 82"><g id="Vector_Smart_Object" data-name="Vector Smart Object" transform="translate(-9.66 -13.577)"><path id="Path_77" data-name="Path 77" d="M57.1,95.577a8.245,8.245,0,0,1-8.118-6.838l-.072-.42H36.251l-6.9,4.765a1.243,1.243,0,1,1-1.415-2.043l3.941-2.722H20.531A10.866,10.866,0,0,1,9.66,77.482V68.027A10.866,10.866,0,0,1,20.531,57.19h3.817l.031-.472a6.841,6.841,0,0,1,6.81-6.366h6.323a6.841,6.841,0,0,1,6.81,6.366l.032.472h7.374l6.6-4.558a1.243,1.243,0,1,1,1.416,2.043L56.1,57.19H66.543v-2.9a3.944,3.944,0,0,1,3.942-3.936H82.591a3.944,3.944,0,0,1,3.942,3.936v2.9H88.79a8.377,8.377,0,0,0,8.382-8.353V39.383A8.377,8.377,0,0,0,88.79,31.03H87.524l-7,4.831a1.243,1.243,0,1,1-1.415-2.044L83.15,31.03H72.531v5.736a1.244,1.244,0,0,1-1.243,1.242H62.536a1.242,1.242,0,1,1,0-2.484h7.507V24.052H55.029V35.524h.506a1.242,1.242,0,1,1,0,2.484h-1.75a1.245,1.245,0,0,1-1.244-1.242V31.03H42.577l-.114.348a2.472,2.472,0,0,1-.547.93,2.524,2.524,0,0,1-1.833.79,2.475,2.475,0,0,1-.31-.02l-2.711-.34L35.087,36.92l1.989,1.862a2.5,2.5,0,0,1-.508,4.019l-5.51,3.02A2.511,2.511,0,0,1,27.385,44.1l-.512-2.673-4.6-.579-1.163,2.463a2.514,2.514,0,0,1-3.988.759l-4.584-4.29a2.5,2.5,0,0,1,.508-4.019l2.393-1.312-.87-4.539-2.71-.341A2.5,2.5,0,0,1,9.9,26.018l2.678-5.672a2.518,2.518,0,0,1,1.8-1.392,2.469,2.469,0,0,1,.469-.045,2.512,2.512,0,0,1,1.719.678l1.991,1.864,4.065-2.229-.512-2.672A2.507,2.507,0,0,1,24.887,13.6l6.24.785a2.5,2.5,0,0,1,1.956,3.549l-1.162,2.461L35.3,23.558,37.7,22.245a2.51,2.51,0,0,1,3.673,1.725l.877,4.576H52.541V22.809a1.245,1.245,0,0,1,1.244-1.242h17.5a1.244,1.244,0,0,1,1.243,1.242v5.736H82.956l-3.844-2.654a1.243,1.243,0,0,1,1.415-2.043l6.8,4.7H88.79A10.866,10.866,0,0,1,99.66,39.383v9.455A10.866,10.866,0,0,1,88.79,59.675H86.533v3.181a3.944,3.944,0,0,1-3.942,3.937H70.485a3.944,3.944,0,0,1-3.942-3.937V59.675H55.5L59.744,62.6a1.243,1.243,0,0,1-1.415,2.044l-7.2-4.971H44.349l-.014.491a6.834,6.834,0,0,1-6.824,6.627H31.189a6.833,6.833,0,0,1-6.823-6.627l-.014-.491H20.531a8.377,8.377,0,0,0-8.383,8.353v9.455a8.377,8.377,0,0,0,8.383,8.353H31.876l-3.942-2.72a1.243,1.243,0,0,1,1.416-2.043l6.9,4.764H49l.093-.388a8.281,8.281,0,0,1,2.874-4.51,8.229,8.229,0,0,1,10.273,0,8.281,8.281,0,0,1,2.874,4.51l.093.388H94.43l-3.941-2.72A1.243,1.243,0,0,1,91.9,81.071L99.1,86.037a.6.6,0,0,0,.054.044,1.253,1.253,0,0,1,.173.153l.027.034.03.038a1.313,1.313,0,0,1,.106.154c.017.031.033.058.044.08a1.232,1.232,0,0,1,.069.183c.006.021.013.041.02.061l.006.018a1.229,1.229,0,0,1,.034.276,1.216,1.216,0,0,1-.035.278l-.006.017c-.007.02-.013.039-.019.058a1.234,1.234,0,0,1-.069.184c-.011.022-.027.05-.043.078l0,.005a1.257,1.257,0,0,1-.106.153l-.028.034c-.011.013-.02.026-.03.037a1.217,1.217,0,0,1-.172.152c-.021.016-.039.031-.055.046L91.9,93.084a1.243,1.243,0,1,1-1.416-2.043l3.941-2.722H65.293l-.072.42A8.245,8.245,0,0,1,57.1,95.577Zm0-13.956A5.751,5.751,0,0,0,51.8,85.132a5.682,5.682,0,0,0-.217,3.835,5.759,5.759,0,0,0,11.045,0A5.733,5.733,0,0,0,57.1,81.621ZM70.485,52.837a1.455,1.455,0,0,0-1.454,1.452v8.567a1.455,1.455,0,0,0,1.454,1.452H82.591a1.455,1.455,0,0,0,1.454-1.452V54.289a1.455,1.455,0,0,0-1.454-1.452ZM26.855,60.21a4.338,4.338,0,0,0,4.334,4.1h6.323a4.341,4.341,0,0,0,4.335-4.1c0-.021,0-.04,0-.059,0-.057.007-.115.007-.18V57.175a4.253,4.253,0,0,0-.039-.556,4.349,4.349,0,0,0-4.307-3.783H31.189a4.367,4.367,0,0,0-4.345,4.339v2.794c0,.069,0,.133.008.188h0S26.854,60.2,26.855,60.21ZM22.277,38.363a2.559,2.559,0,0,1,.319.02l4.574.575a2.5,2.5,0,0,1,2.15,2.014l.514,2.687,5.558-3.047-2-1.87a2.492,2.492,0,0,1-.554-2.891L34.8,31.692a2.517,2.517,0,0,1,2.266-1.437,2.566,2.566,0,0,1,.318.02l2.723.343-1.189-6.21-2.406,1.319a2.526,2.526,0,0,1-1.21.311,2.5,2.5,0,0,1-1.714-.678l-3.362-3.146a2.49,2.49,0,0,1-.552-2.892l1.166-2.472-6.294-.793.515,2.686a2.5,2.5,0,0,1-1.257,2.663l-4.04,2.213a2.5,2.5,0,0,1-2.924-.368l-2-1.874-2.7,5.72,2.722.343a2.5,2.5,0,0,1,2.151,2.015l.865,4.512a2.5,2.5,0,0,1-1.257,2.664l-2.4,1.316,4.625,4.328L20.011,39.8A2.517,2.517,0,0,1,22.277,38.363Zm3.535-3.5a5.094,5.094,0,0,1-4.466-2.627,5.064,5.064,0,0,1,2.006-6.89,5.1,5.1,0,0,1,6.907,2,5.063,5.063,0,0,1-2.007,6.89A5.09,5.09,0,0,1,25.812,34.859ZM25.8,27.2a2.6,2.6,0,0,0-1.25.321,2.582,2.582,0,0,0-1.024,3.513,2.6,2.6,0,0,0,3.53,1.021,2.58,2.58,0,0,0,1.025-3.513A2.6,2.6,0,0,0,25.8,27.2Z" fill="#04a5d9"></path></g></svg>