<svg xmlns="http://www.w3.org/2000/svg" width="59" height="79" viewBox="0 0 59 79"><g id="Vector_Smart_Object" data-name="Vector Smart Object" transform="translate(-1245.911 -469.343)"><g id="Group_71" data-name="Group 71"><g id="Group_54" data-name="Group 54"><g id="Group_53" data-name="Group 53"><path id="Path_68" data-name="Path 68" d="M1247.179,519.893a1.284,1.284,0,0,1-.9-.368,1.249,1.249,0,0,1,0-1.777,1.274,1.274,0,0,1,1.792,0,1.247,1.247,0,0,1,0,1.776A1.279,1.279,0,0,1,1247.179,519.893Z" fill="#04a5d9"></path></g></g><g id="Group_56" data-name="Group 56"><g id="Group_55" data-name="Group 55"><path id="Path_69" data-name="Path 69" d="M1250.943,548.343a5.016,5.016,0,0,1-5.032-4.988v-18.5a1.268,1.268,0,0,1,2.535,0v9.781h53.927V480.25h-53.927v32.169a1.268,1.268,0,0,1-2.535,0V474.331a5.016,5.016,0,0,1,5.032-4.988h48.934a5.016,5.016,0,0,1,5.032,4.988v4.629l0,.032,0,.041V535.86l0,.032,0,.04v7.424a5.016,5.016,0,0,1-5.032,4.988Zm-2.5-4.988a2.489,2.489,0,0,0,2.5,2.475h48.934a2.489,2.489,0,0,0,2.5-2.475V537.15h-53.927Zm2.5-71.5a2.488,2.488,0,0,0-2.5,2.475v3.406h53.927v-3.406a2.488,2.488,0,0,0-2.5-2.475Z" fill="#04a5d9"></path></g></g><g id="Group_58" data-name="Group 58"><g id="Group_57" data-name="Group 57"><path id="Path_70" data-name="Path 70" d="M1275.411,542.745a1.283,1.283,0,0,1-.9-.369,1.247,1.247,0,0,1,0-1.776,1.275,1.275,0,0,1,1.792,0,1.247,1.247,0,0,1,0,1.776A1.282,1.282,0,0,1,1275.411,542.745Z" fill="#04a5d9"></path></g></g><g id="Group_60" data-name="Group 60"><g id="Group_59" data-name="Group 59"><path id="Path_71" data-name="Path 71" d="M1262.412,530.878c-1.458,0-2.731-1.275-4.127-4.135a55.873,55.873,0,0,1-2.976-8.03c-1.692-5.63-3.122-12.348-3.122-14.67a7.93,7.93,0,0,1,3.02-6.1l.291-.244-.307-.224a5.27,5.27,0,0,1,1.983-9.424l.162-.036.056-.154a5.353,5.353,0,0,1,10.041,0l.056.154.161.036a5.269,5.269,0,0,1,1.984,9.424l-.307.224.291.244a7.931,7.931,0,0,1,3.02,6.1c0,2.323-1.429,9.041-3.121,14.67a55.853,55.853,0,0,1-2.977,8.03C1265.143,529.6,1263.87,530.878,1262.412,530.878Zm-5.991-17.688c.343,1.375.709,2.733,1.089,4.036,2,6.873,3.746,10.181,4.708,10.985l.194.162.194-.162c.391-.327,1.834-1.914,3.988-8.629l.124-.389h-2.473a1.256,1.256,0,1,1,0-2.513h3.226l.062-.218a83.931,83.931,0,0,0,2.512-11.543l.035-.329h-6.422a1.256,1.256,0,1,1,0-2.512h6.059l-.239-.439a7.953,7.953,0,0,0-7.067-3.689c-4.24,0-7.69,2.733-7.69,6.092a37.648,37.648,0,0,0,.97,6.028l.051.236h4.271a1.256,1.256,0,1,1,0,2.513h-3.685Zm5.991-17.752a11.853,11.853,0,0,1,3.655.571l.076.025.079-.016a1.281,1.281,0,0,1,.259-.026,2.776,2.776,0,1,0,.013-5.552h-.037a1.265,1.265,0,0,1-1.264-1.11,2.8,2.8,0,0,0-5.56,0,1.265,1.265,0,0,1-1.259,1.11h-.047a2.776,2.776,0,1,0,.018,5.552,1.3,1.3,0,0,1,.26.027l.078.016.076-.025A11.85,11.85,0,0,1,1262.412,495.438Z" fill="#04a5d9"></path></g></g><g id="Group_62" data-name="Group 62"><g id="Group_61" data-name="Group 61"><path id="Path_72" data-name="Path 72" d="M1285.815,495.186a1.256,1.256,0,1,1,0-2.513h11.552a1.256,1.256,0,1,1,0,2.513Z" fill="#04a5d9"></path></g></g><g id="Group_64" data-name="Group 64"><g id="Group_63" data-name="Group 63"><path id="Path_73" data-name="Path 73" d="M1279.487,495.186a1.288,1.288,0,0,1-.9-.369,1.252,1.252,0,0,1,0-1.776,1.276,1.276,0,0,1,1.794,0,1.247,1.247,0,0,1,0,1.776A1.287,1.287,0,0,1,1279.487,495.186Z" fill="#04a5d9"></path></g></g><g id="Group_66" data-name="Group 66"><g id="Group_65" data-name="Group 65"><path id="Path_74" data-name="Path 74" d="M1279.487,502.643a1.256,1.256,0,1,1,0-2.513h17.88a1.256,1.256,0,1,1,0,2.513Z" fill="#04a5d9"></path></g></g><g id="Group_68" data-name="Group 68"><g id="Group_67" data-name="Group 67"><path id="Path_75" data-name="Path 75" d="M1279.487,510.1a1.256,1.256,0,1,1,0-2.513h17.88a1.256,1.256,0,1,1,0,2.513Z" fill="#04a5d9"></path></g></g><g id="Group_70" data-name="Group 70"><g id="Group_69" data-name="Group 69"><path id="Path_76" data-name="Path 76" d="M1283.248,525.013a4.985,4.985,0,1,1,0-9.969h10.357a4.985,4.985,0,1,1,0,9.969Zm0-7.457a2.489,2.489,0,0,0-1.763.725,2.441,2.441,0,0,0-.731,1.747,2.486,2.486,0,0,0,2.494,2.472h10.357a2.472,2.472,0,1,0,0-4.944Z" fill="#04a5d9"></path></g></g></g></g></svg>