<svg xmlns="http://www.w3.org/2000/svg" width="79" height="80" viewBox="0 0 79 80"><g id="Vector_Smart_Object" data-name="Vector Smart Object" transform="translate(-2.633 -2.66)"><g id="plants-growth-hand-chat"><path id="Path_68" data-name="Path 68" d="M77.683,51.879a3.844,3.844,0,0,0-1.936.532,4,4,0,0,0-2.014-1.623V33.256a3.983,3.983,0,0,0-3.95-3.991H43.45V26.6h2.633A10.6,10.6,0,0,0,56.617,15.963a1.324,1.324,0,0,0-1.317-1.33H51.35a10.454,10.454,0,0,0-7.9,3.632V14.633h2.633A10.6,10.6,0,0,0,56.617,3.991,1.324,1.324,0,0,0,55.3,2.66H51.35a10.554,10.554,0,0,0-10.191,8.021,10.5,10.5,0,0,0-8.242-4.031h-3.95a1.324,1.324,0,0,0-1.317,1.33A10.6,10.6,0,0,0,38.183,18.623h2.633v4.962a10.454,10.454,0,0,0-7.9-3.632h-3.95a1.324,1.324,0,0,0-1.317,1.33,10.654,10.654,0,0,0,3.594,7.981H14.483a3.983,3.983,0,0,0-3.95,3.991V49.83L7.176,52.105a1.257,1.257,0,0,0-.408.426l-3.95,6.651a1.339,1.339,0,0,0-.184.678V70.5a1.318,1.318,0,0,0,.263.8l3.687,4.962v6.212H9.217V75.823a1.318,1.318,0,0,0-.263-.8L5.267,70.063v-9.83l3.608-6.079,1.659-1.117v9.485H9.217v2.66h3.95A1.353,1.353,0,0,0,14.1,64.8l3.581-3.618a1.583,1.583,0,0,1,2.255.013,1.623,1.623,0,0,1,.352,1.716L18.525,67.35a.667.667,0,0,0-.053.173l-1.317,5.321a1.3,1.3,0,0,0-.026.505l1.317,9.312,2.607-.372-1.277-9.059.342-1.4H54.642l3.292,4.43v6.212h2.633V75.823a1.318,1.318,0,0,0-.263-.8l-3.687-4.962V60.406l1.317-1.33v4.776h2.633V45.228a1.317,1.317,0,1,1,2.633,0V63.851h2.633V54.539a1.317,1.317,0,1,1,2.633,0v9.312H71.1V54.539a1.317,1.317,0,1,1,2.633,0v9.312h2.633V55.87a1.317,1.317,0,1,1,2.633,0V71.393l-3.687,4.962a1.318,1.318,0,0,0-.263.8v5.321h2.633V77.592l3.687-4.962a1.318,1.318,0,0,0,.263-.8V55.87A3.983,3.983,0,0,0,77.683,51.879ZM51.35,17.293h2.528a7.946,7.946,0,0,1-7.795,6.651H43.555A7.946,7.946,0,0,1,51.35,17.293Zm0-11.972h2.528a7.946,7.946,0,0,1-7.795,6.651H43.555A7.946,7.946,0,0,1,51.35,5.321ZM38.183,15.963a7.946,7.946,0,0,1-7.795-6.651h2.528a7.946,7.946,0,0,1,7.795,6.651Zm3.95,23.412,7.795,9.844H34.339l4.016-5.068,2.778,3.272,2-1.729-3.107-3.658ZM30.389,22.614h2.528a7.946,7.946,0,0,1,7.795,6.651H38.183A7.946,7.946,0,0,1,30.389,22.614ZM71.1,50.788a4.171,4.171,0,0,0-1.317.8,3.822,3.822,0,0,0-3.95-.8v-5.56a3.95,3.95,0,1,0-7.9,0v10.1l-3.568,3.592a1.381,1.381,0,0,0-.382.944v9.312H20.777L21,68.254l1.725-4.35a4.288,4.288,0,0,0-2.349-5.557,4.2,4.2,0,0,0-4.564.941l-2.646,2.687V33.256a1.324,1.324,0,0,1,1.317-1.33H40.817v4.855l-2.528,3.193-3.055-3.592a1.325,1.325,0,0,0-1-.466H17.117v2.66H33.628l2.989,3.512-5.648,7.13h-2v2.66H55.3v-2.66h-2L43.45,36.781V31.926H69.783a1.324,1.324,0,0,1,1.317,1.33Z" fill="#04a5d9"></path><rect id="Rectangle_14" data-name="Rectangle 14" width="5.267" height="2.66" transform="translate(17.117 41.237)" fill="#04a5d9"></rect><rect id="Rectangle_15" data-name="Rectangle 15" width="7.9" height="2.66" transform="translate(17.117 46.558)" fill="#04a5d9"></rect><rect id="Rectangle_16" data-name="Rectangle 16" width="2.633" height="2.66" transform="translate(17.117 51.475)" fill="#04a5d9"></rect><rect id="Rectangle_17" data-name="Rectangle 17" width="2.633" height="2.66" transform="translate(18.433 21.284)" fill="#04a5d9"></rect><path id="Path_69" data-name="Path 69" d="M10.533,15.963h2.633V26.6H15.8V14.633a1.324,1.324,0,0,0-1.317-1.33h-.772l3.4-3.44,3.4,3.44H19.75a1.324,1.324,0,0,0-1.317,1.33v3.991h2.633v-2.66H23.7a1.323,1.323,0,0,0,1.316-1.331,1.337,1.337,0,0,0-.385-.94L18.048,7.041a1.307,1.307,0,0,0-1.862,0L9.6,13.692a1.34,1.34,0,0,0,0,1.881A1.31,1.31,0,0,0,10.533,15.963Z" fill="#04a5d9"></path></g></g></svg>