<svg xmlns="http://www.w3.org/2000/svg" xmlns:xlink="http://www.w3.org/1999/xlink" width="67" height="81" viewBox="0 0 67 81"><defs><clipPath id="clip-path"><rect id="Rectangle_15" data-name="Rectangle 15" width="67" height="81" transform="translate(0 0)" fill="#04a5d9"></rect></clipPath></defs><g id="Vector_Smart_Object" data-name="Vector Smart Object" transform="translate(0 0)"><g id="Group_52" data-name="Group 52"><g id="Group_51" data-name="Group 51" clip-path="url(#clip-path)"><path id="Path_61" data-name="Path 61" d="M19.2,24.3c-1.382-7.457.706-13.558,7.05-17.681C31.775,3.027,37.6,3.12,43.269,6.47a15.333,15.333,0,0,1,6.477,7.718,15.537,15.537,0,0,1,.6,10.053h3.87c-1.018-3.365-.5-5.525,1.685-7.073a5.3,5.3,0,0,1,6.325.154c2.062,1.6,2.527,3.838,1.431,6.9a11.121,11.121,0,0,1,1.432.656A4.075,4.075,0,0,1,67,28.578q-.012,16.2,0,32.394c0,.759,0,1.518,0,2.278a4.026,4.026,0,0,1-4.207,4.245q-7.535.015-15.07,0h-.989c1.035,1.565,2.03,2.977,2.921,4.452a1.682,1.682,0,0,0,1.8.964,16.913,16.913,0,0,1,2.175-.012,4.024,4.024,0,0,1,3.982,3.958q.038,1.349,0,2.7A1.345,1.345,0,0,1,56.2,80.994C56,81,55.8,81,55.61,81H11.4c-1.663,0-2.023-.359-2.023-2.012,0-.731-.019-1.463.008-2.193a4.024,4.024,0,0,1,3.879-3.888,23.827,23.827,0,0,1,2.594.009,1.292,1.292,0,0,0,1.334-.739c.962-1.534,1.984-3.031,3.072-4.678H19.221q-7.368,0-14.736,0C1.63,67.5,0,65.873,0,63.022Q0,45.9,0,28.773C0,25.919,1.628,24.3,4.481,24.3q6.907,0,13.814,0ZM2.683,35.1h.66c2.065,0,4.13-.008,6.2,0,1.058.006,1.523.481,1.554,1.541.01.357,0,.715,0,1.156.423,0,.75,0,1.078,0a37.117,37.117,0,0,1,4.931.089c4.219.615,8.416,1.391,12.617,2.13A5.285,5.285,0,0,1,34.1,43.822a14.185,14.185,0,0,1,.307,1.4A13.7,13.7,0,0,1,36,45.4a2.977,2.977,0,0,0,2.9-1.036c2.279-2.194,4.622-4.323,6.96-6.455a5.341,5.341,0,0,1,8.173.939,5.474,5.474,0,0,1-.927,7.123c-3.8,3.558-7.661,7.059-11.462,10.619a10.046,10.046,0,0,1-7.208,2.818c-7.451-.032-14.9-.011-22.354-.011H11.055c0,.352,0,.6,0,.849-.01,1.435-.422,1.849-1.849,1.851q-2.177,0-4.354,0H2.722c-.15,2.4.123,2.7,2.338,2.7H62.493c1.381,0,1.822-.432,1.822-1.793q0-17.125,0-34.249c0-1.313-.45-1.757-1.77-1.758-4.13,0-8.261.012-12.391-.017a1.032,1.032,0,0,0-1.074.677,15.94,15.94,0,0,1-27.675,1.3,3.615,3.615,0,0,0-3.7-2.006c-4.462.129-8.929.04-13.394.046-1.046,0-1.6.459-1.615,1.4-.026,2.191-.009,4.383-.009,6.7M34.791,33.74A13.5,13.5,0,1,0,21.44,20.155,13.453,13.453,0,0,0,34.791,33.74M11.114,40.578V56.7H12c7.509,0,15.017-.016,22.526.01a7.336,7.336,0,0,0,5.306-2.083c1.808-1.715,3.658-3.387,5.488-5.079C47.3,47.72,49.276,45.9,51.24,44.064A2.8,2.8,0,0,0,52.1,41a2.461,2.461,0,0,0-2.128-1.779,2.8,2.8,0,0,0-2.414.906c-2.458,2.292-4.937,4.562-7.389,6.861a4.325,4.325,0,0,1-3.5,1.262c-.778-.073-1.561-.1-2.334-.207a.873.873,0,0,0-.961.441,5.031,5.031,0,0,1-5.141,2.294c-3.113-.475-6.21-1.066-9.307-1.642a1.327,1.327,0,0,1-1.144-1.655,1.384,1.384,0,0,1,1.681-1.012c1.621.282,3.239.579,4.858.87,1.345.241,2.687.5,4.035.72a2.724,2.724,0,0,0,3.117-1.689,2.63,2.63,0,0,0-1.087-3.16,4.574,4.574,0,0,0-1.492-.5c-2.467-.459-4.946-.855-7.41-1.329a35.187,35.187,0,0,0-10.36-.809M47.041,72.863c-1.176-1.782-2.271-3.467-3.407-5.122a1.008,1.008,0,0,0-.732-.233q-9.417-.018-18.835,0c-.228,0-.565.042-.668.192-1.15,1.676-2.264,3.376-3.45,5.165Zm-38.724-35H2.723V59.358H8.317ZM54.877,78.269c.216-2.3-.117-2.672-2.293-2.672H14.17a7.889,7.889,0,0,0-.836.011,1.287,1.287,0,0,0-1.256,1.236,13.878,13.878,0,0,0-.009,1.424Zm4.2-59.369a2.7,2.7,0,1,0,2.549,2.8,2.7,2.7,0,0,0-2.549-2.8" fill="#04a5d9"></path><path id="Path_62" data-name="Path 62" d="M10.7,8.1a5.4,5.4,0,1,1-5.337,5.439A5.385,5.385,0,0,1,10.7,8.1m2.7,5.386a2.676,2.676,0,1,0-2.642,2.708,2.7,2.7,0,0,0,2.642-2.708" fill="#04a5d9"></path><path id="Path_63" data-name="Path 63" d="M57.616,6.726c0-1.687,0-3.375,0-5.062,0-1.055.518-1.675,1.355-1.663s1.32.626,1.322,1.7q.006,5.062,0,10.124c0,1.053-.522,1.677-1.356,1.665s-1.317-.628-1.32-1.7c-.005-1.687,0-3.375,0-5.062" fill="#04a5d9"></path><path id="Path_64" data-name="Path 64" d="M52.256,4.68c0,1.069.01,2.137,0,3.206-.012.937-.52,1.528-1.3,1.553-.811.025-1.369-.587-1.374-1.559q-.017-3.163,0-6.327c0-.943.512-1.527,1.3-1.551.813-.025,1.364.585,1.376,1.557.013,1.04,0,2.081,0,3.121" fill="#04a5d9"></path><path id="Path_65" data-name="Path 65" d="M21.437,4.052c0,.872.019,1.744-.006,2.615a1.335,1.335,0,1,1-2.664-.016q-.031-2.615,0-5.23A1.326,1.326,0,0,1,20.106,0a1.341,1.341,0,0,1,1.326,1.436c.023.871.005,1.743,0,2.615" fill="#04a5d9"></path><path id="Path_66" data-name="Path 66" d="M12.058,2.714c0,.422.016.844,0,1.265a1.337,1.337,0,1,1-2.668-.041c-.021-.843-.024-1.688,0-2.53A1.333,1.333,0,0,1,10.739,0a1.355,1.355,0,0,1,1.316,1.448c.017.421,0,.843,0,1.265" fill="#04a5d9"></path><path id="Path_67" data-name="Path 67" d="M39.526,16.616c-.013.943-.5,1.525-1.222,1.593A1.363,1.363,0,0,1,36.851,16.9c-.207-1.451-1.215-2.288-2.427-2.016a2.053,2.053,0,0,0-1.59,2.1,2,2,0,0,0,1.98,1.9,4.773,4.773,0,0,1,3.321,1.367,4.683,4.683,0,0,1-1.245,7.57,1.009,1.009,0,0,0-.719,1.193,2.778,2.778,0,0,1-.015.841,1.27,1.27,0,0,1-1.312,1.173c-.739,0-1.371-.459-1.288-1.153.16-1.344-.492-1.928-1.528-2.548a4.134,4.134,0,0,1-1.866-3.416,1.376,1.376,0,0,1,1.2-1.629c.771-.074,1.338.461,1.464,1.384a2.071,2.071,0,0,0,1.67,1.951,2.023,2.023,0,1,0,.272-4.021,4.679,4.679,0,0,1-4.476-3.52,4.617,4.617,0,0,1,2.494-5.409,1,1,0,0,0,.715-1.2,2.793,2.793,0,0,1,.014-.841,1.265,1.265,0,0,1,1.315-1.167c.741,0,1.369.464,1.285,1.156-.164,1.348.5,1.921,1.53,2.547a4.186,4.186,0,0,1,1.875,3.451" fill="#04a5d9"></path></g></g></g></svg>