<svg xmlns="http://www.w3.org/2000/svg" width="79" height="79" viewBox="0 0 79 79"><g id="Vector_Smart_Object" data-name="Vector Smart Object" transform="translate(-1491.382 -699.844)"><g id="Group_75" data-name="Group 75"><g id="Group_74" data-name="Group 74"><path id="Path_96" data-name="Path 96" d="M1530.883,754.742a1.256,1.256,0,1,1,.888-.368A1.265,1.265,0,0,1,1530.883,754.742Z" fill="#04a5d9"></path></g></g><g id="Group_77" data-name="Group 77"><g id="Group_76" data-name="Group 76"><path id="Path_97" data-name="Path 97" d="M1569.126,723.9a1.257,1.257,0,1,1,.888-.368A1.263,1.263,0,0,1,1569.126,723.9Z" fill="#04a5d9"></path></g></g><g id="Group_79" data-name="Group 79"><g id="Group_78" data-name="Group 78"><path id="Path_98" data-name="Path 98" d="M1516.213,778.845a1.258,1.258,0,0,1-1.256-1.256,8.293,8.293,0,0,1,7.58-8.223l.275-.022v-9.01h-27.064a4.366,4.366,0,0,1-4.366-4.356V704.2a4.366,4.366,0,0,1,4.366-4.357h70.269a4.366,4.366,0,0,1,4.365,4.357v10.419a1.256,1.256,0,1,1-2.512,0V704.2a1.851,1.851,0,0,0-1.853-1.844h-70.269a1.851,1.851,0,0,0-1.854,1.844v42.443h73.976V729.138a1.256,1.256,0,1,1,2.512,0v26.839a4.366,4.366,0,0,1-4.365,4.356h-27.064v9.01l.275.022a8.293,8.293,0,0,1,7.58,8.223,1.258,1.258,0,0,1-1.256,1.256Zm7-7a5.778,5.778,0,0,0-5.5,4.1l-.115.384h26.577l-.115-.384a5.777,5.777,0,0,0-5.5-4.1Zm2.114-2.512h11.116V760.5h-11.116Zm-31.43-13.359a1.851,1.851,0,0,0,1.854,1.844h70.269a1.851,1.851,0,0,0,1.853-1.844v-6.82h-73.976Z" fill="#04a5d9"></path></g></g><path id="Path_99" data-name="Path 99" d="M1501.034,742.546a1.256,1.256,0,0,1-.888-2.145l8.874-8.874a1.256,1.256,0,0,1,1.776,0l5.952,5.951,7.714-7.715h-1.387a1.256,1.256,0,1,1,0-2.512h4.419a1.257,1.257,0,0,1,1.256,1.256v4.42a1.256,1.256,0,1,1-2.512,0V731.54l-8.6,8.6a1.265,1.265,0,0,1-.888.368,1.249,1.249,0,0,1-.889-.368l-5.952-5.951-7.986,7.986A1.246,1.246,0,0,1,1501.034,742.546Z" fill="#04a5d9"></path><g id="Group_80" data-name="Group 80"><path id="Path_100" data-name="Path 100" d="M1537.1,735.705a1.256,1.256,0,0,1,0-2.513h10.312a1.256,1.256,0,0,1,0,2.513Z" fill="#04a5d9"></path></g><g id="Group_82" data-name="Group 82"><g id="Group_81" data-name="Group 81"><path id="Path_101" data-name="Path 101" d="M1554.979,735.705a1.256,1.256,0,0,1,0-2.513h5.752a1.256,1.256,0,0,1,0,2.513Z" fill="#04a5d9"></path></g></g><g id="Group_83" data-name="Group 83"><path id="Path_102" data-name="Path 102" d="M1537.1,742.546a1.257,1.257,0,1,1,.888-.368A1.264,1.264,0,0,1,1537.1,742.546Z" fill="#04a5d9"></path></g><g id="Group_84" data-name="Group 84"><path id="Path_103" data-name="Path 103" d="M1543.786,742.546a1.256,1.256,0,1,1,0-2.512h16.945a1.256,1.256,0,0,1,0,2.512Z" fill="#04a5d9"></path></g><g id="Group_85" data-name="Group 85"><path id="Path_104" data-name="Path 104" d="M1546.6,729.409a10.584,10.584,0,1,1,10.584-10.584A10.6,10.6,0,0,1,1546.6,729.409Zm-1.614-18.494a8.072,8.072,0,1,0,9.523,9.523l.073-.358H1546.6a1.258,1.258,0,0,1-1.256-1.256v-7.982Zm2.87,6.653h6.726l-.073-.358a8.055,8.055,0,0,0-6.295-6.295l-.358-.073Z" fill="#04a5d9"></path></g><path id="Path_105" data-name="Path 105" d="M1513.782,726.221a1.257,1.257,0,0,1-1.256-1.256v-1.54l-.325.029c-.4.035-.812.054-1.213.054a11.211,11.211,0,0,1-8.074-3.158c-4.457-4.457-2.877-10.634-2.807-10.9a1.258,1.258,0,0,1,.89-.89,12.322,12.322,0,0,1,2.916-.326,11.077,11.077,0,0,1,7.979,3.133,10.486,10.486,0,0,1,1.637,2.119l.258.442.258-.442a10.442,10.442,0,0,1,1.637-2.119,11.076,11.076,0,0,1,7.978-3.133,12.316,12.316,0,0,1,2.916.326,1.258,1.258,0,0,1,.89.89c.07.261,1.656,6.432-2.807,10.9a11.212,11.212,0,0,1-8.075,3.158c-.4,0-.815-.018-1.222-.054l-.325-.029v1.541A1.258,1.258,0,0,1,1513.782,726.221Zm-9.875-15.474a11,11,0,0,0-1.284.075l-.234.027-.028.233a8.967,8.967,0,0,0,2.329,7.489,8.732,8.732,0,0,0,6.285,2.43,11.2,11.2,0,0,0,1.239-.069l.236-.027.026-.236c.019-.174.036-.367.049-.576v-.426c0-.234,0-.474.007-.723a8.241,8.241,0,0,0-8.626-8.2Zm19.745-.006a8.244,8.244,0,0,0-8.609,8.261c.008.3.008.588,0,.873.01.285.03.545.057.794l.027.237.237.026a11.123,11.123,0,0,0,1.234.069,8.733,8.733,0,0,0,6.286-2.43,8.963,8.963,0,0,0,2.327-7.492l-.028-.233-.233-.028A10.937,10.937,0,0,0,1523.652,710.742Z" fill="#04a5d9"></path></g></svg>