<svg xmlns="http://www.w3.org/2000/svg" xmlns:xlink="http://www.w3.org/1999/xlink" id="Vector_Smart_Object" data-name="Vector Smart Object" width="83" height="80" viewBox="0 0 83 80"><defs><clipPath id="clip-path"><rect id="Rectangle_18" data-name="Rectangle 18" width="83" height="80" fill="#04a5d9"></rect></clipPath></defs><g id="Group_73" data-name="Group 73"><g id="Group_72" data-name="Group 72" clip-path="url(#clip-path)"><path id="Path_78" data-name="Path 78" d="M47.019,16.4a1.43,1.43,0,0,1-1.43-1.431c0-6.679-6.618-12.112-14.753-12.112S16.083,8.294,16.083,14.973a1.43,1.43,0,1,1-2.861,0C13.222,6.717,21.124,0,30.836,0S48.449,6.717,48.449,14.973a1.43,1.43,0,0,1-1.43,1.431" fill="#04a5d9"></path><path id="Path_79" data-name="Path 79" d="M15.1,28.762a1.412,1.412,0,0,1-.355-.045C9.4,27.35,3.692,25.545,3.692,21.427c0-6.444,13.985-9.92,27.143-9.92s27.143,3.476,27.143,9.92c0,4.037-5.306,5.774-10.74,7.208a1.43,1.43,0,0,1-.729-2.766c3.7-.975,8.608-2.5,8.608-4.442,0-2.948-9.238-7.059-24.282-7.059S6.553,18.48,6.553,21.427c0,2.009,5.081,3.541,8.9,4.518a1.43,1.43,0,0,1-.353,2.816" fill="#04a5d9"></path><path id="Path_80" data-name="Path 80" d="M48.065,22.446a1.437,1.437,0,0,1-.409-.06,61.14,61.14,0,0,0-16.821-2.128,63.074,63.074,0,0,0-15.98,1.888,1.43,1.43,0,0,1-.752-2.76A65.972,65.972,0,0,1,30.836,17.4a64.071,64.071,0,0,1,17.638,2.247,1.431,1.431,0,0,1-.408,2.8" fill="#04a5d9"></path><path id="Path_81" data-name="Path 81" d="M52.834,54.324a1.421,1.421,0,0,1-.823-.262,25.244,25.244,0,0,0-5.068-2.4q-.3-.115-.6-.223l-5.121-1.305c-.041-.01-.08-.023-.12-.036-3.552-1.247-3.894-4.1-4.144-6.184l-.054-.608a1.43,1.43,0,1,1,2.849-.251l.05.563c.263,2.182.538,3.161,2.191,3.76l5.119,1.3c.041.01.082.023.121.037q.373.132.738.272a27.424,27.424,0,0,1,5.692,2.734,1.43,1.43,0,0,1-.826,2.6" fill="#04a5d9"></path><path id="Path_82" data-name="Path 82" d="M1.431,79.506H1.39A1.43,1.43,0,0,1,0,78.035l.374-13.1c.261-6.892,5.193-13,12.871-15.943q.365-.141.738-.272L17.752,47.4c2.066-.724,3.471-2.19,3.667-3.824l.089-.671a1.43,1.43,0,1,1,2.835.376l-.087.653C23.932,46.64,21.8,49.009,18.7,50.1l-3.767,1.321c-.222.078-.443.159-.661.243C7.679,54.193,3.45,59.314,3.233,65.029L2.86,78.116a1.431,1.431,0,0,1-1.429,1.39" fill="#04a5d9"></path><path id="Path_83" data-name="Path 83" d="M30.76,43.838a11.422,11.422,0,0,1-6.242-1.818,15.5,15.5,0,0,1-3.343-2.941,16.847,16.847,0,0,1-3.661-8.471,57.871,57.871,0,0,1-.24-9.846,1.431,1.431,0,0,1,2.859.107,55.53,55.53,0,0,0,.207,9.3,14.047,14.047,0,0,0,3.015,7.059,12.661,12.661,0,0,0,2.727,2.4,8.776,8.776,0,0,0,9.261.077,12.286,12.286,0,0,0,2.912-2.477,14.034,14.034,0,0,0,3.014-7.059,63.75,63.75,0,0,0,.3-10,1.431,1.431,0,1,1,2.859-.108A66.237,66.237,0,0,1,44.1,30.608a16.841,16.841,0,0,1-3.66,8.471,15.168,15.168,0,0,1-3.587,3.057,11.594,11.594,0,0,1-6.089,1.7" fill="#04a5d9"></path><path id="Path_84" data-name="Path 84" d="M13.2,65.084a1.432,1.432,0,0,1-1.33-.9L7.582,53.423a1.431,1.431,0,1,1,2.658-1.059l4.286,10.759A1.432,1.432,0,0,1,13.2,65.084" fill="#04a5d9"></path><path id="Path_85" data-name="Path 85" d="M20.653,65.084a1.432,1.432,0,0,1-1.33-.9L13.816,50.358A1.431,1.431,0,1,1,16.474,49.3l5.507,13.824a1.432,1.432,0,0,1-1.328,1.961" fill="#04a5d9"></path><path id="Path_86" data-name="Path 86" d="M49.475,79.507a1.432,1.432,0,0,1-1.352-.964L44.814,68.96H15.76l-3.309,9.583a1.431,1.431,0,1,1-2.7-.934l3.642-10.547a1.431,1.431,0,0,1,1.352-.963H45.833a1.431,1.431,0,0,1,1.352.963l3.642,10.547a1.432,1.432,0,0,1-1.352,1.9" fill="#04a5d9"></path><path id="Path_87" data-name="Path 87" d="M47.377,65.084a1.432,1.432,0,0,1-1.328-1.961l4.286-10.759a1.431,1.431,0,1,1,2.658,1.059L48.707,64.182a1.432,1.432,0,0,1-1.33.9" fill="#04a5d9"></path><path id="Path_88" data-name="Path 88" d="M39.922,65.084a1.432,1.432,0,0,1-1.328-1.961L44.1,49.3a1.431,1.431,0,1,1,2.658,1.059L41.251,64.182a1.432,1.432,0,0,1-1.33.9" fill="#04a5d9"></path><path id="Path_89" data-name="Path 89" d="M30.168,53.747a13.99,13.99,0,0,1-10.284-4.776,1.431,1.431,0,1,1,2.18-1.852,11.027,11.027,0,0,0,8.1,3.767c.089,0,.178,0,.269,0a11.033,11.033,0,0,0,7.945-3.9A1.43,1.43,0,1,1,40.6,48.79a13.759,13.759,0,0,1-10.087,4.952c-.115,0-.228,0-.341,0" fill="#04a5d9"></path><path id="Path_90" data-name="Path 90" d="M80.3,80H58a2.707,2.707,0,0,1-2.7-2.7V35.82a2.707,2.707,0,0,1,2.7-2.7H80.3a2.707,2.707,0,0,1,2.7,2.7V77.3A2.707,2.707,0,0,1,80.3,80m-22.14-2.861H80.139V35.977H58.156Z" fill="#04a5d9"></path><path id="Path_91" data-name="Path 91" d="M81.57,41.77H60.278a1.431,1.431,0,0,1,0-2.861H81.57a1.431,1.431,0,0,1,0,2.861" fill="#04a5d9"></path><rect id="Rectangle_16" data-name="Rectangle 16" width="24.844" height="2.861" transform="translate(56.726 69.25)" fill="#04a5d9"></rect><path id="Path_92" data-name="Path 92" d="M61.748,54.821A1.431,1.431,0,0,1,60.6,52.543a10.84,10.84,0,0,1,8.392-4.779,10.686,10.686,0,0,1,8.673,4.369,1.43,1.43,0,1,1-2.229,1.792,7.924,7.924,0,0,0-6.36-3.3A8.056,8.056,0,0,0,62.9,54.238a1.427,1.427,0,0,1-1.154.583" fill="#04a5d9"></path><path id="Path_93" data-name="Path 93" d="M64.06,57.675a1.43,1.43,0,0,1-1.122-2.316,8.127,8.127,0,0,1,6.149-3.286,8,8,0,0,1,6.35,2.985,1.43,1.43,0,1,1-2.166,1.868,5.208,5.208,0,0,0-4.1-1.993,5.321,5.321,0,0,0-3.986,2.2,1.427,1.427,0,0,1-1.124.545" fill="#04a5d9"></path><path id="Path_94" data-name="Path 94" d="M66.48,60.408a1.43,1.43,0,0,1-1.152-2.277,4.77,4.77,0,0,1,7.827-.186,1.431,1.431,0,1,1-2.231,1.792,2.089,2.089,0,0,0-1.666-.883,2.188,2.188,0,0,0-1.624.969,1.429,1.429,0,0,1-1.155.584" fill="#04a5d9"></path><path id="Path_95" data-name="Path 95" d="M70.9,62.522a1.635,1.635,0,1,1-1.635-1.668A1.652,1.652,0,0,1,70.9,62.522" fill="#04a5d9"></path><rect id="Rectangle_17" data-name="Rectangle 17" width="5.048" height="2.861" transform="translate(66.624 73.24)" fill="#04a5d9"></rect></g></g></svg>