<svg xmlns="http://www.w3.org/2000/svg" xmlns:xlink="http://www.w3.org/1999/xlink" width="80" height="80" viewBox="0 0 80 80"><defs><clipPath id="clip-path"><rect id="Rectangle_18" data-name="Rectangle 18" width="80" height="80" transform="translate(0 0)" fill="#04a5d9"></rect></clipPath></defs><g id="Vector_Smart_Object" data-name="Vector Smart Object" transform="translate(0 0)"><g id="Group_42" data-name="Group 42"><g id="Group_41" data-name="Group 41" clip-path="url(#clip-path)"><path id="Path_70" data-name="Path 70" d="M69.6,63.055a15.688,15.688,0,0,0-14.327,9.262,1.374,1.374,0,0,0,.7,1.818,1.391,1.391,0,0,0,1.829-.7A12.914,12.914,0,0,1,69.6,65.81a1.378,1.378,0,1,0,0-2.756" fill="#04a5d9"></path><path id="Path_71" data-name="Path 71" d="M69.6,53.281a25.451,25.451,0,0,0-25.5,25.342,1.387,1.387,0,0,0,2.773,0A22.684,22.684,0,0,1,69.6,56.036a1.378,1.378,0,1,0,0-2.756" fill="#04a5d9"></path><path id="Path_72" data-name="Path 72" d="M69.6,43.355a35.372,35.372,0,0,0-25.1,10.33A34.926,34.926,0,0,0,34.1,78.623a1.386,1.386,0,0,0,2.772,0A32.653,32.653,0,0,1,69.6,46.11a1.378,1.378,0,1,0,0-2.756" fill="#04a5d9"></path><path id="Path_73" data-name="Path 73" d="M69.6,33.607H1.386a1.378,1.378,0,1,0,0,2.756H53.93A45.552,45.552,0,0,0,30.754,55.426H1.386a1.378,1.378,0,1,0,0,2.755H29.213A44.589,44.589,0,0,0,24.3,78.623a1.387,1.387,0,0,0,2.773,0A42.441,42.441,0,0,1,69.6,36.363a1.378,1.378,0,1,0,0-2.756" fill="#04a5d9"></path><path id="Path_74" data-name="Path 74" d="M53.551,22.028a1.345,1.345,0,0,0,0,1.911,1.365,1.365,0,0,0,1.923,0,10.8,10.8,0,0,1,15.184,0,1.366,1.366,0,0,0,1.923,0,1.345,1.345,0,0,0,0-1.911,13.532,13.532,0,0,0-19.03,0" fill="#04a5d9"></path><path id="Path_75" data-name="Path 75" d="M79.6,15.051a23.516,23.516,0,0,0-33.071,0,1.345,1.345,0,0,0,0,1.911,1.365,1.365,0,0,0,1.923,0,20.784,20.784,0,0,1,29.226,0A1.355,1.355,0,1,0,79.6,15.051" fill="#04a5d9"></path><path id="Path_76" data-name="Path 76" d="M5.047,73.006a1.372,1.372,0,0,0,0,1.948,1.393,1.393,0,0,0,1.961,0,5.207,5.207,0,0,1,7.322,0,1.392,1.392,0,0,0,1.96,0,1.371,1.371,0,0,0,0-1.948,8,8,0,0,0-11.242,0" fill="#04a5d9"></path><path id="Path_77" data-name="Path 77" d="M.406,68.394a1.371,1.371,0,0,0,0,1.948,1.392,1.392,0,0,0,1.961,0,11.807,11.807,0,0,1,16.6,0,1.391,1.391,0,0,0,1.961,0,1.372,1.372,0,0,0,0-1.948,14.6,14.6,0,0,0-20.525,0" fill="#04a5d9"></path><path id="Path_78" data-name="Path 78" d="M19.086,17.178A5.652,5.652,0,1,0,13.4,11.527a5.675,5.675,0,0,0,5.687,5.651m0-8.547a2.9,2.9,0,1,1-2.914,2.9,2.908,2.908,0,0,1,2.914-2.9" fill="#04a5d9"></path><path id="Path_79" data-name="Path 79" d="M19.086,5.175A1.382,1.382,0,0,0,20.473,3.8V1.377a1.386,1.386,0,0,0-2.772,0V3.8a1.382,1.382,0,0,0,1.386,1.377" fill="#04a5d9"></path><path id="Path_80" data-name="Path 80" d="M17.7,19.51v2.166a1.387,1.387,0,0,0,2.773,0V19.51a1.387,1.387,0,0,0-2.773,0" fill="#04a5d9"></path><path id="Path_81" data-name="Path 81" d="M25.479,11.527A1.382,1.382,0,0,0,26.865,12.9H29.3a1.378,1.378,0,1,0,0-2.755H26.865a1.382,1.382,0,0,0-1.386,1.377" fill="#04a5d9"></path><path id="Path_82" data-name="Path 82" d="M8.873,12.9h2.18a1.378,1.378,0,1,0,0-2.755H8.873a1.378,1.378,0,1,0,0,2.755" fill="#04a5d9"></path><path id="Path_83" data-name="Path 83" d="M23.607,16.018a1.372,1.372,0,0,0,0,1.948l1.722,1.711a1.393,1.393,0,0,0,1.961,0,1.372,1.372,0,0,0,0-1.948l-1.722-1.711a1.393,1.393,0,0,0-1.961,0" fill="#04a5d9"></path><path id="Path_84" data-name="Path 84" d="M12.425,6.856a1.382,1.382,0,0,0,1.96-1.948L12.844,3.376a1.392,1.392,0,0,0-1.96,0,1.372,1.372,0,0,0,0,1.948Z" fill="#04a5d9"></path><path id="Path_85" data-name="Path 85" d="M12.606,16.018,10.884,17.73a1.372,1.372,0,0,0,0,1.948,1.393,1.393,0,0,0,1.961,0l1.722-1.711a1.372,1.372,0,0,0,0-1.948,1.393,1.393,0,0,0-1.961,0" fill="#04a5d9"></path><path id="Path_86" data-name="Path 86" d="M24.767,7.259a1.387,1.387,0,0,0,.98-.4l1.541-1.532a1.371,1.371,0,0,0,0-1.948,1.393,1.393,0,0,0-1.961,0L23.787,4.907a1.372,1.372,0,0,0,0,1.948,1.387,1.387,0,0,0,.98.4" fill="#04a5d9"></path><path id="Path_87" data-name="Path 87" d="M1.386,47.272H26.8a1.378,1.378,0,1,0,0-2.755H1.386a1.378,1.378,0,1,0,0,2.755" fill="#04a5d9"></path><path id="Path_88" data-name="Path 88" d="M64.426,30.516V26.125a1.36,1.36,0,0,0-2.719,0v4.391a1.36,1.36,0,0,0,2.719,0" fill="#04a5d9"></path></g></g></g></svg>