<svg xmlns="http://www.w3.org/2000/svg" width="82" height="82" viewBox="0 0 82 82" fill="none"><mask id="mask0_1223_284" style="mask-type:alpha" maskUnits="userSpaceOnUse" x="11" y="4" width="61" height="73"><path d="M40.7513 12.8066L38.8584 12.3999" stroke="black" stroke-width="2" stroke-miterlimit="10" stroke-linecap="round" stroke-linejoin="round"></path><path d="M52.807 15.3984L50.9141 14.9917" stroke="black" stroke-width="2" stroke-miterlimit="10" stroke-linecap="round" stroke-linejoin="round"></path><path d="M40.7513 12.8066L38.8584 12.3999" stroke="black" stroke-width="2" stroke-miterlimit="10" stroke-linecap="round" stroke-linejoin="round"></path><path d="M52.807 15.3984L50.9141 14.9917" stroke="black" stroke-width="2" stroke-miterlimit="10" stroke-linecap="round" stroke-linejoin="round"></path><mask id="mask1_1223_284" style="mask-type:luminance" maskUnits="userSpaceOnUse" x="11" y="4" width="61" height="73"><path d="M11 4.00001H71.5366V77H11V4.00001Z" fill="white"></path></mask><g mask="url(#mask1_1223_284)"><path d="M46.7373 7.77197L47.0746 5.4893" stroke="black" stroke-width="2" stroke-miterlimit="10" stroke-linecap="round" stroke-linejoin="round"></path></g><path d="M50.0645 10.3379L51.6415 9.01134" stroke="black" stroke-width="2" stroke-miterlimit="10" stroke-linecap="round" stroke-linejoin="round"></path><path d="M40.0215 18.7871L41.5985 17.4606" stroke="black" stroke-width="2" stroke-miterlimit="10" stroke-linecap="round" stroke-linejoin="round"></path><path d="M48.7852 19.0016L49.8852 20.9033" stroke="black" stroke-width="2" stroke-miterlimit="10" stroke-linecap="round" stroke-linejoin="round"></path><mask id="mask2_1223_284" style="mask-type:luminance" maskUnits="userSpaceOnUse" x="11" y="4" width="61" height="73"><path d="M11 4.00001H71.5366V77H11V4.00001Z" fill="white"></path></mask><g mask="url(#mask2_1223_284)"><path d="M41.7793 6.89224L42.8794 8.79395" stroke="black" stroke-width="2" stroke-miterlimit="10" stroke-linecap="round" stroke-linejoin="round"></path></g><path d="M36.3828 32.6445H46.1476" stroke="black" stroke-width="2" stroke-miterlimit="10" stroke-linecap="round" stroke-linejoin="round"></path><path d="M36.3828 69.3516H46.1476" stroke="black" stroke-width="2" stroke-miterlimit="10" stroke-linecap="round" stroke-linejoin="round"></path><path d="M36.3828 50.998H46.1476" stroke="black" stroke-width="2" stroke-miterlimit="10" stroke-linecap="round" stroke-linejoin="round"></path><mask id="mask3_1223_284" style="mask-type:luminance" maskUnits="userSpaceOnUse" x="11" y="4" width="61" height="73"><path d="M11 4.00001H71.5366V77H11V4.00001Z" fill="white"></path></mask><g mask="url(#mask3_1223_284)"><path d="M41.3037 69.3501V27.0492C41.3037 24.5024 42.2481 22.0889 43.8782 20.4696C45.5084 18.8505 46.4527 16.4369 46.4527 13.8902" stroke="black" stroke-width="2" stroke-miterlimit="10" stroke-linecap="round" stroke-linejoin="round"></path><path d="M34.9581 38.8032H13.3202C12.5301 38.8032 11.8896 38.0307 11.8896 37.078V28.2097C11.8896 27.257 12.5301 26.4846 13.3202 26.4846H34.9581C35.7482 26.4846 36.3888 27.257 36.3888 28.2097V37.078C36.3888 38.0307 35.7482 38.8032 34.9581 38.8032Z" stroke="black" stroke-width="2" stroke-miterlimit="10" stroke-linecap="round" stroke-linejoin="round"></path><path d="M16.79 34.2124V38.8022" stroke="black" stroke-width="2" stroke-miterlimit="10" stroke-linecap="round" stroke-linejoin="round"></path><path d="M16.79 26.4838V29.229" stroke="black" stroke-width="2" stroke-miterlimit="10" stroke-linecap="round" stroke-linejoin="round"></path><path d="M31.4756 38.8032V26.4846" stroke="black" stroke-width="2" stroke-miterlimit="10" stroke-linecap="round" stroke-linejoin="round"></path><path d="M34.9581 57.1577H13.3202C12.5301 57.1577 11.8896 56.3854 11.8896 55.4325V46.5642C11.8896 45.6116 12.5301 44.8391 13.3202 44.8391H34.9581C35.7482 44.8391 36.3888 45.6116 36.3888 46.5642V55.4325C36.3888 56.3854 35.7482 57.1577 34.9581 57.1577Z" stroke="black" stroke-width="2" stroke-miterlimit="10" stroke-linecap="round" stroke-linejoin="round"></path><path d="M31.4756 57.1577V44.8391" stroke="black" stroke-width="2" stroke-miterlimit="10" stroke-linecap="round" stroke-linejoin="round"></path><path d="M16.79 44.8391V57.1577" stroke="black" stroke-width="2" stroke-miterlimit="10" stroke-linecap="round" stroke-linejoin="round"></path><path d="M34.9581 75.5093H13.3202C12.5301 75.5093 11.8896 74.7369 11.8896 73.7841V64.9157C11.8896 63.963 12.5301 63.1907 13.3202 63.1907H34.9581C35.7482 63.1907 36.3888 63.963 36.3888 64.9157V73.7841C36.3888 74.7369 35.7482 75.5093 34.9581 75.5093Z" stroke="black" stroke-width="2" stroke-miterlimit="10" stroke-linecap="round" stroke-linejoin="round"></path><path d="M31.4756 75.5093V63.1907" stroke="black" stroke-width="2" stroke-miterlimit="10" stroke-linecap="round" stroke-linejoin="round"></path><path d="M16.79 63.1907V75.5093" stroke="black" stroke-width="2" stroke-miterlimit="10" stroke-linecap="round" stroke-linejoin="round"></path><path d="M69.2159 38.8032H47.578C46.7881 38.8032 46.1475 38.0307 46.1475 37.078V28.2097C46.1475 27.257 46.7881 26.4846 47.578 26.4846H69.2159C70.0061 26.4846 70.6466 27.257 70.6466 28.2097V37.078C70.6466 38.0307 70.0061 38.8032 69.2159 38.8032Z" stroke="black" stroke-width="2" stroke-miterlimit="10" stroke-linecap="round" stroke-linejoin="round"></path><path d="M51.0469 26.4836V38.8022" stroke="black" stroke-width="2" stroke-miterlimit="10" stroke-linecap="round" stroke-linejoin="round"></path><path d="M65.7324 38.8032V26.4846" stroke="black" stroke-width="2" stroke-miterlimit="10" stroke-linecap="round" stroke-linejoin="round"></path><path d="M69.2159 57.1577H47.578C46.7881 57.1577 46.1475 56.3854 46.1475 55.4325V46.5642C46.1475 45.6116 46.7881 44.8391 47.578 44.8391H69.2159C70.0061 44.8391 70.6466 45.6116 70.6466 46.5642V55.4325C70.6466 56.3854 70.0061 57.1577 69.2159 57.1577Z" stroke="black" stroke-width="2" stroke-miterlimit="10" stroke-linecap="round" stroke-linejoin="round"></path><path d="M65.7324 57.1577V44.8391" stroke="black" stroke-width="2" stroke-miterlimit="10" stroke-linecap="round" stroke-linejoin="round"></path><path d="M51.0469 44.8391V57.1577" stroke="black" stroke-width="2" stroke-miterlimit="10" stroke-linecap="round" stroke-linejoin="round"></path><path d="M69.2159 75.5093H47.578C46.7881 75.5093 46.1475 74.7369 46.1475 73.7841V64.9157C46.1475 63.963 46.7881 63.1907 47.578 63.1907H69.2159C70.0061 63.1907 70.6466 63.963 70.6466 64.9157V73.7841C70.6466 74.7369 70.0061 75.5093 69.2159 75.5093Z" stroke="black" stroke-width="2" stroke-miterlimit="10" stroke-linecap="round" stroke-linejoin="round"></path><path d="M65.7324 75.5093V63.1907" stroke="black" stroke-width="2" stroke-miterlimit="10" stroke-linecap="round" stroke-linejoin="round"></path><path d="M51.0469 70.9194V75.5093" stroke="black" stroke-width="2" stroke-miterlimit="10" stroke-linecap="round" stroke-linejoin="round"></path><path d="M51.0469 63.1907V65.936" stroke="black" stroke-width="2" stroke-miterlimit="10" stroke-linecap="round" stroke-linejoin="round"></path></g></mask><g mask="url(#mask0_1223_284)"><rect x="2.14062" y="-4.01221" width="77.5164" height="88.1341" fill="url(#paint0_linear_1223_284)"></rect></g><defs><linearGradient id="paint0_linear_1223_284" x1="67.1067" y1="11.1219" x2="2.17344" y2="63.8849" gradientUnits="userSpaceOnUse"><stop stop-color="#16A9C6"></stop><stop offset="1" stop-color="#7AC15C"></stop></linearGradient></defs></svg>