<svg xmlns="http://www.w3.org/2000/svg" width="82" height="82" viewBox="0 0 82 82" fill="none"><mask id="mask0_1223_167" style="mask-type:alpha" maskUnits="userSpaceOnUse" x="0" y="4" width="82" height="74"><path d="M49.9407 67.6603C38.7442 78.8552 20.5922 78.8552 9.39734 67.6603C-1.79911 56.4639 -1.79911 38.3119 9.39734 27.117C16.3321 20.1807 25.9382 17.5413 34.9053 19.2006V19.2022C34.617 19.1733 34.3255 19.1573 34.0292 19.1573C29.1413 19.1573 25.179 23.1196 25.179 28.0075C25.179 32.8954 29.1413 36.8577 34.0292 36.8577H56.3389C60.4004 47.1557 58.2671 59.3323 49.9407 67.6603Z" stroke="black" stroke-width="2" stroke-miterlimit="10" stroke-linecap="round" stroke-linejoin="round"></path><path d="M46.5342 47.7429L48.5472 45.7299C49.5764 44.7007 51.2463 44.7007 52.2756 45.7299L58.0428 51.4971C57.1903 57.411 54.4901 63.1099 49.9402 67.6598C45.6683 71.9318 40.3847 74.5719 34.8594 75.5836V68.4266C34.8603 67.7271 35.1384 67.0563 35.6323 66.5624L39.711 62.4837C40.2049 61.9898 40.8756 61.7118 41.5752 61.7108L43.1242 61.7118C44.5813 61.7118 45.7624 60.5306 45.7624 59.0735L45.7615 49.6069C45.7624 48.9075 46.0403 48.2368 46.5342 47.7429Z" stroke="black" stroke-width="2" stroke-miterlimit="10" stroke-linecap="round" stroke-linejoin="round"></path><path d="M29.8508 49.2406V55.9271C29.8508 57.7512 28.371 59.2295 26.5484 59.2311H22.3972C21.5211 59.2311 20.6819 59.577 20.0621 60.1968L11.0614 69.1991C10.4912 68.7123 9.9355 68.1982 9.39738 67.66C-0.894201 57.3685 -1.72541 41.2024 6.90056 29.9627C7.26027 29.4829 7.64864 29.0211 8.04247 28.5693L12.2642 32.8599C13.2539 33.8673 13.8081 35.2222 13.8081 36.6348V40.0317C13.8081 40.9077 14.154 41.7469 14.7754 42.3667L14.8651 42.458C16.1559 43.7473 18.2476 43.7473 19.5368 42.458L19.6505 42.3427C20.9414 41.0534 23.033 41.0534 24.3223 42.3427L28.8835 46.9039C29.5017 47.5237 29.8508 48.3645 29.8508 49.2406Z" stroke="black" stroke-width="2" stroke-miterlimit="10" stroke-linecap="round" stroke-linejoin="round"></path><path d="M77.5056 18.2722C75.3395 15.3329 71.8627 13.3857 68.0603 13.3857C66.9953 13.3857 65.9623 13.5299 64.9821 13.7957C62.3652 8.58107 56.9711 5 50.7395 5C42.5267 5 35.7666 11.2172 34.9049 19.2026C34.6167 19.1737 34.3252 19.1577 34.0289 19.1577C29.141 19.1577 25.1787 23.12 25.1787 28.0079C25.1787 32.8959 29.141 36.8581 34.0289 36.8581H68.0603C72.0147 36.8581 75.5826 34.7857 77.7197 31.6912" stroke="black" stroke-width="2" stroke-miterlimit="10" stroke-linecap="round" stroke-linejoin="round"></path><path d="M55.0889 23.516L58.4244 20.4448L61.6429 23.516" stroke="black" stroke-width="2" stroke-miterlimit="10" stroke-linecap="round" stroke-linejoin="round"></path><path d="M50.0482 22.0664L46.7126 25.3334L43.334 22.0664" stroke="black" stroke-width="2" stroke-miterlimit="10" stroke-linecap="round" stroke-linejoin="round"></path><path d="M46.7129 25.3335V19.7667C46.7129 17.726 48.3671 16.0718 50.4079 16.0718H52.4884" stroke="black" stroke-width="2" stroke-miterlimit="10" stroke-linecap="round" stroke-linejoin="round"></path><path d="M58.4243 20.4448V25.8093C58.4243 27.85 56.7701 29.5042 54.7292 29.5042H52.4883" stroke="black" stroke-width="2" stroke-miterlimit="10" stroke-linecap="round" stroke-linejoin="round"></path><circle cx="79.7969" cy="25.1216" r="1.60156" fill="black"></circle></mask><g mask="url(#mask0_1223_167)"><rect x="-4" y="1" width="90" height="80" fill="url(#paint0_linear_1223_167)"></rect></g><defs><linearGradient id="paint0_linear_1223_167" x1="11" y1="75.5" x2="80" y2="6.5" gradientUnits="userSpaceOnUse"><stop stop-color="#7AC15C"></stop><stop offset="1" stop-color="#16A9C6"></stop></linearGradient></defs></svg>