<svg xmlns="http://www.w3.org/2000/svg" width="82" height="82" viewBox="0 0 82 82" fill="none"><mask id="mask0_1223_201" style="mask-type:alpha" maskUnits="userSpaceOnUse" x="9" y="4" width="63" height="73"><mask id="mask1_1223_201" style="mask-type:luminance" maskUnits="userSpaceOnUse" x="4" y="4" width="73" height="73"><path d="M76 76V5H5V76H76Z" fill="white" stroke="white" stroke-width="2"></path></mask><g mask="url(#mask1_1223_201)"><path d="M70.9287 66.6704C70.9287 71.5877 66.9423 75.5742 62.025 75.5742C57.1074 75.5742 53.1211 71.5877 53.1211 66.6704C53.1211 61.7528 57.1074 57.7665 62.025 57.7665C66.9423 57.7665 70.9287 61.7528 70.9287 66.6704Z" stroke="url(#paint0_linear_1223_201)" stroke-width="2" stroke-miterlimit="10" stroke-linecap="round" stroke-linejoin="round"></path><path d="M58.5957 66.6785L60.8858 68.9688L65.1965 64.6582" stroke="url(#paint1_linear_1223_201)" stroke-width="2" stroke-miterlimit="10" stroke-linecap="round" stroke-linejoin="round"></path><path d="M20.277 13.1827C17.2127 13.6932 13.8083 14.0099 10.0713 14.0099V40.0745C10.0713 55.7817 20.1108 69.8553 35.0782 74.6206C36.2157 74.9827 38.5748 75.5586 40.0359 75.5586C41.7108 75.5586 43.8562 74.9827 44.9935 74.6206C48.2095 73.5971 51.1972 72.1431 53.9071 70.3357C53.4009 69.2181 53.1203 67.978 53.1203 66.6708C53.1203 61.7529 57.1058 57.766 62.0236 57.766C63.1155 57.766 64.1633 57.9626 65.1297 58.3233C68.2529 52.8967 70.0006 46.6274 70.0006 40.0745V14.0099C50.5201 14.0099 40.0359 5.42583 40.0359 5.42583C40.0359 5.42583 37.3645 7.61184 32.2155 9.77774" stroke="url(#paint2_linear_1223_201)" stroke-width="2" stroke-miterlimit="10" stroke-linecap="round" stroke-linejoin="round"></path><path d="M63.5856 20.1358V40.0752C63.5856 46.4498 61.6213 52.5451 57.9052 57.6995C54.26 62.7625 48.9986 66.6159 43.0475 68.5088C42.5244 68.6742 40.8453 69.1104 40.0356 69.1104C38.8281 68.9806 37.5467 68.6742 37.0234 68.5088C31.0717 66.6135 25.8152 62.7673 22.1659 57.6995C18.4498 52.5451 16.4854 46.4498 16.4854 40.0752V20.1358C22.9784 19.5342 30.378 18.0004 35.7364 15.5543C37.4184 14.7861 38.8482 14.0119 40.0356 13.2964C41.2229 14.0119 42.6527 14.7861 44.3347 15.5543C49.6931 18.0004 57.0926 19.5342 63.5856 20.1358Z" stroke="url(#paint3_linear_1223_201)" stroke-width="2" stroke-miterlimit="10" stroke-linecap="round" stroke-linejoin="round"></path><path d="M23.6572 25.1723V32.6748" stroke="url(#paint4_linear_1223_201)" stroke-width="2" stroke-miterlimit="10" stroke-linecap="round" stroke-linejoin="round"></path><path d="M36.2852 25.1723V32.6748" stroke="url(#paint5_linear_1223_201)" stroke-width="2" stroke-miterlimit="10" stroke-linecap="round" stroke-linejoin="round"></path><path d="M29.9718 25.1723L29.9717 32.6748" stroke="url(#paint6_linear_1223_201)" stroke-width="2" stroke-miterlimit="10" stroke-linecap="round" stroke-linejoin="round"></path><path d="M36.2854 32.6745V35.4271C36.2854 37.4884 35.2505 39.3486 33.681 40.5075C32.8758 41.1004 32.4311 42.0668 32.5136 43.0647L33.43 67.0889C31.0056 65.9491 28.7031 64.4148 26.6815 62.6554L27.4318 43.0405C27.5117 42.0484 27.0727 41.0848 26.273 40.4903C24.7036 39.3243 23.6572 37.4627 23.6572 35.4271V32.6745C23.8372 34.5993 24.8897 35.6517 26.8146 35.8319C28.5581 35.8319 29.9706 34.4179 29.9706 32.6745C29.9706 34.4179 31.3847 35.8319 33.1267 35.8319C35.0514 35.6514 36.1042 34.599 36.2854 32.6745Z" stroke="url(#paint7_linear_1223_201)" stroke-width="2" stroke-miterlimit="10" stroke-linecap="round" stroke-linejoin="round"></path><path d="M56.5437 33.7513C56.5437 31.0938 55.3733 28.5513 53.3029 26.7116L52.501 25.9992C51.2593 24.8959 49.2276 24.8959 47.986 25.9992L47.1842 26.7116C45.1138 28.5513 43.9434 31.0938 43.9434 33.7513V35.5582C43.9434 37.7654 45.0787 39.7074 46.7972 40.8326C47.4111 41.2345 47.7808 41.918 47.7459 42.6512C47.498 47.8548 46.5798 67.1191 46.5798 67.1191C49.1413 65.9152 51.5962 64.2894 53.7345 62.3508C53.7345 62.3508 52.9331 47.2532 52.6905 42.6848C52.6513 41.9468 53.0253 41.259 53.6468 40.8594C55.3892 39.7389 56.5437 37.7837 56.5437 35.5582V33.7513Z" stroke="url(#paint8_linear_1223_201)" stroke-width="2" stroke-miterlimit="10" stroke-linecap="round" stroke-linejoin="round"></path></g></mask><g mask="url(#mask0_1223_201)"><rect x="-0.5" y="-5.5" width="86" height="90" fill="url(#paint9_linear_1223_201)" stroke="url(#paint10_linear_1223_201)"></rect></g><defs><linearGradient id="paint0_linear_1223_201" x1="62.0249" y1="75.5742" x2="62.0249" y2="57.7665" gradientUnits="userSpaceOnUse"><stop stop-color="#7AC15C"></stop><stop offset="1" stop-color="#16A9C6"></stop></linearGradient><linearGradient id="paint1_linear_1223_201" x1="61.8961" y1="68.9688" x2="61.8961" y2="64.6582" gradientUnits="userSpaceOnUse"><stop stop-color="#7AC15C"></stop><stop offset="1" stop-color="#16A9C6"></stop></linearGradient><linearGradient id="paint2_linear_1223_201" x1="40.0359" y1="75.5586" x2="40.0359" y2="5.42583" gradientUnits="userSpaceOnUse"><stop stop-color="#7AC15C"></stop><stop offset="1" stop-color="#16A9C6"></stop></linearGradient><linearGradient id="paint3_linear_1223_201" x1="40.0355" y1="69.1104" x2="40.0355" y2="13.2964" gradientUnits="userSpaceOnUse"><stop stop-color="#7AC15C"></stop><stop offset="1" stop-color="#16A9C6"></stop></linearGradient><linearGradient id="paint4_linear_1223_201" x1="24.1572" y1="32.6748" x2="24.1572" y2="25.1723" gradientUnits="userSpaceOnUse"><stop stop-color="#7AC15C"></stop><stop offset="1" stop-color="#16A9C6"></stop></linearGradient><linearGradient id="paint5_linear_1223_201" x1="36.7852" y1="32.6748" x2="36.7852" y2="25.1723" gradientUnits="userSpaceOnUse"><stop stop-color="#7AC15C"></stop><stop offset="1" stop-color="#16A9C6"></stop></linearGradient><linearGradient id="paint6_linear_1223_201" x1="29.9718" y1="32.6748" x2="29.9718" y2="25.1723" gradientUnits="userSpaceOnUse"><stop stop-color="#7AC15C"></stop><stop offset="1" stop-color="#16A9C6"></stop></linearGradient><linearGradient id="paint7_linear_1223_201" x1="29.9713" y1="67.0889" x2="29.9713" y2="32.6745" gradientUnits="userSpaceOnUse"><stop stop-color="#7AC15C"></stop><stop offset="1" stop-color="#16A9C6"></stop></linearGradient><linearGradient id="paint8_linear_1223_201" x1="50.2435" y1="67.1191" x2="50.2435" y2="25.1717" gradientUnits="userSpaceOnUse"><stop stop-color="#7AC15C"></stop><stop offset="1" stop-color="#16A9C6"></stop></linearGradient><linearGradient id="paint9_linear_1223_201" x1="42.5" y1="-6" x2="42.5" y2="85" gradientUnits="userSpaceOnUse"><stop stop-color="#7AC15C"></stop><stop offset="1" stop-color="#16A9C6"></stop></linearGradient><linearGradient id="paint10_linear_1223_201" x1="14.5" y1="69.5" x2="72" y2="7.5" gradientUnits="userSpaceOnUse"><stop stop-color="#7AC15C"></stop><stop offset="0.988122" stop-color="#16A9C6"></stop></linearGradient></defs></svg>