<svg xmlns="http://www.w3.org/2000/svg" width="82" height="82" viewBox="0 0 82 82" fill="none"><mask id="mask0_1223_230" style="mask-type:alpha" maskUnits="userSpaceOnUse" x="4" y="4" width="73" height="73"><mask id="mask1_1223_230" style="mask-type:luminance" maskUnits="userSpaceOnUse" x="4" y="4" width="73" height="73"><path d="M4 4H77V77H4V4Z" fill="white"></path></mask><g mask="url(#mask1_1223_230)"><path d="M46.2031 68.4453C46.9902 68.4453 47.6289 69.0841 47.6289 69.8711C47.6289 70.6581 46.9902 71.2969 46.2031 71.2969C45.4161 71.2969 44.7773 70.6581 44.7773 69.8711C44.7773 69.0841 45.4161 68.4453 46.2031 68.4453Z" fill="black"></path><path d="M40.5 68.4453C41.287 68.4453 41.9258 69.0841 41.9258 69.8711C41.9258 70.6581 41.287 71.2969 40.5 71.2969C39.713 71.2969 39.0742 70.6581 39.0742 69.8711C39.0742 69.0841 39.713 68.4453 40.5 68.4453Z" fill="black"></path><path d="M34.7969 68.4453C35.5839 68.4453 36.2227 69.0841 36.2227 69.8711C36.2227 70.6581 35.5839 71.2969 34.7969 71.2969C34.0098 71.2969 33.3711 70.6581 33.3711 69.8711C33.3711 69.0841 34.0098 68.4453 34.7969 68.4453Z" fill="black"></path><path d="M5.42578 46.2031H19.6836H33.9414" stroke="url(#paint0_linear_1223_230)" stroke-width="2" stroke-miterlimit="10" stroke-linecap="round" stroke-linejoin="round"></path><path d="M47.0586 40.5H61.3164H75.5742" stroke="url(#paint1_linear_1223_230)" stroke-width="2" stroke-miterlimit="10" stroke-linecap="round" stroke-linejoin="round"></path><path d="M22.5066 54.3543C22.5252 54.4855 22.5352 54.6209 22.5352 54.7578C22.5352 56.3333 21.2591 57.6094 19.6836 57.6094C18.1081 57.6094 16.832 56.3333 16.832 54.7578C16.832 53.1823 18.1081 51.9062 19.6836 51.9062C21.1222 51.9062 22.3113 52.9699 22.5066 54.3543Z" stroke="url(#paint2_linear_1223_230)" stroke-width="2" stroke-miterlimit="10" stroke-linecap="round" stroke-linejoin="round"></path><path d="M61.3164 46.2031C62.8919 46.2031 64.168 47.4792 64.168 49.0547C64.168 50.6302 62.8919 51.9062 61.3164 51.9062C59.8778 51.9062 58.6887 50.8426 58.4934 49.4582C58.4748 49.327 58.4648 49.1916 58.4648 49.0547C58.4648 47.4792 59.7409 46.2031 61.3164 46.2031Z" stroke="url(#paint3_linear_1223_230)" stroke-width="2" stroke-miterlimit="10" stroke-linecap="round" stroke-linejoin="round"></path><path d="M19.6836 46.2031V51.9062" stroke="url(#paint4_linear_1223_230)" stroke-width="2" stroke-miterlimit="10" stroke-linecap="round" stroke-linejoin="round"></path><path d="M61.3164 40.5V46.2031" stroke="url(#paint5_linear_1223_230)" stroke-width="2" stroke-miterlimit="10" stroke-linecap="round" stroke-linejoin="round"></path><path d="M43.3516 64.168V51.9062C43.3516 51.7694 43.3416 51.6339 43.323 51.5028C43.1277 50.1183 41.9386 49.0547 40.5 49.0547C38.9245 49.0547 37.6484 50.3308 37.6484 51.9062V52.314V64.168" stroke="url(#paint6_linear_1223_230)" stroke-width="2" stroke-miterlimit="10" stroke-linecap="round" stroke-linejoin="round"></path><path d="M22.5068 54.3545L37.6486 52.3142" stroke="url(#paint7_linear_1223_230)" stroke-width="2" stroke-miterlimit="10" stroke-linecap="round" stroke-linejoin="round"></path><path d="M43.3232 51.5029L58.4936 49.4584" stroke="url(#paint8_linear_1223_230)" stroke-width="2" stroke-miterlimit="10" stroke-linecap="round" stroke-linejoin="round"></path><path d="M17.4023 30.8047C17.9228 31.4976 18.7511 31.9453 19.6836 31.9453C21.2591 31.9453 22.5352 30.6692 22.5352 29.0938C22.5352 27.5183 21.2591 26.2422 19.6836 26.2422C18.1081 26.2422 16.832 24.9661 16.832 23.3906C16.832 21.8151 18.1081 20.5391 19.6836 20.5391C20.6161 20.5391 21.4444 20.9868 21.9648 21.6797" stroke="url(#paint9_linear_1223_230)" stroke-width="2" stroke-miterlimit="10" stroke-linecap="round" stroke-linejoin="round"></path><path d="M19.6836 17.6875V20.5391" stroke="url(#paint10_linear_1223_230)" stroke-width="2" stroke-miterlimit="10" stroke-linecap="round" stroke-linejoin="round"></path><path d="M19.6836 31.9453V34.7969" stroke="url(#paint11_linear_1223_230)" stroke-width="2" stroke-miterlimit="10" stroke-linecap="round" stroke-linejoin="round"></path><path d="M33.9414 26.2422C33.9414 34.1168 27.5582 40.5 19.6836 40.5C11.809 40.5 5.42578 34.1168 5.42578 26.2422C5.42578 18.3676 11.809 11.9844 19.6836 11.9844C27.5582 11.9844 33.9414 18.3676 33.9414 26.2422Z" stroke="url(#paint12_linear_1223_230)" stroke-width="2" stroke-miterlimit="10" stroke-linecap="round" stroke-linejoin="round"></path><path d="M65.5938 5.42578H75.5742V34.7969H47.0586V5.42578H57.0391H65.5938Z" stroke="url(#paint13_linear_1223_230)" stroke-width="2" stroke-miterlimit="10" stroke-linecap="round" stroke-linejoin="round"></path><path d="M65.5938 5.42578V13.9805H57.0391V5.42578" stroke="url(#paint14_linear_1223_230)" stroke-width="2" stroke-miterlimit="10" stroke-linecap="round" stroke-linejoin="round"></path><path d="M61.3164 29.0938H69.8711" stroke="url(#paint15_linear_1223_230)" stroke-width="2" stroke-miterlimit="10" stroke-linecap="round" stroke-linejoin="round"></path><path d="M61.3164 23.3906H67.0195" stroke="url(#paint16_linear_1223_230)" stroke-width="2" stroke-miterlimit="10" stroke-linecap="round" stroke-linejoin="round"></path><path d="M41.9258 75.5742C41.9258 76.3615 41.2875 77 40.5 77C39.7125 77 39.0742 76.3615 39.0742 75.5742C39.0742 74.7869 39.7125 74.1484 40.5 74.1484C41.2875 74.1484 41.9258 74.7869 41.9258 75.5742Z" fill="black"></path><path d="M46.916 75.5742H57.6094V64.168H43.3516H37.6484H23.3906V75.5742H34.0838" stroke="url(#paint17_linear_1223_230)" stroke-width="2" stroke-miterlimit="10" stroke-linecap="round" stroke-linejoin="round"></path></g></mask><g mask="url(#mask0_1223_230)"><rect x="-15.5" y="-7.5" width="128" height="87" fill="url(#paint18_linear_1223_230)" stroke="url(#paint19_linear_1223_230)"></rect></g><defs><linearGradient id="paint0_linear_1223_230" x1="19.6836" y1="46.2031" x2="19.6836" y2="45.2031" gradientUnits="userSpaceOnUse"><stop></stop><stop offset="1" stop-color="#666666"></stop></linearGradient><linearGradient id="paint1_linear_1223_230" x1="61.3164" y1="40.5" x2="61.3164" y2="39.5" gradientUnits="userSpaceOnUse"><stop></stop><stop offset="1" stop-color="#666666"></stop></linearGradient><linearGradient id="paint2_linear_1223_230" x1="19.6836" y1="57.6094" x2="19.6836" y2="51.9062" gradientUnits="userSpaceOnUse"><stop></stop><stop offset="1" stop-color="#666666"></stop></linearGradient><linearGradient id="paint3_linear_1223_230" x1="61.3164" y1="51.9062" x2="61.3164" y2="46.2031" gradientUnits="userSpaceOnUse"><stop></stop><stop offset="1" stop-color="#666666"></stop></linearGradient><linearGradient id="paint4_linear_1223_230" x1="20.1836" y1="51.9062" x2="20.1836" y2="46.2031" gradientUnits="userSpaceOnUse"><stop></stop><stop offset="1" stop-color="#666666"></stop></linearGradient><linearGradient id="paint5_linear_1223_230" x1="61.8164" y1="46.2031" x2="61.8164" y2="40.5" gradientUnits="userSpaceOnUse"><stop></stop><stop offset="1" stop-color="#666666"></stop></linearGradient><linearGradient id="paint6_linear_1223_230" x1="40.5" y1="64.168" x2="40.5" y2="49.0547" gradientUnits="userSpaceOnUse"><stop></stop><stop offset="1" stop-color="#666666"></stop></linearGradient><linearGradient id="paint7_linear_1223_230" x1="30.0777" y1="54.3545" x2="30.0777" y2="52.3142" gradientUnits="userSpaceOnUse"><stop></stop><stop offset="1" stop-color="#666666"></stop></linearGradient><linearGradient id="paint8_linear_1223_230" x1="50.9084" y1="51.5029" x2="50.9084" y2="49.4584" gradientUnits="userSpaceOnUse"><stop></stop><stop offset="1" stop-color="#666666"></stop></linearGradient><linearGradient id="paint9_linear_1223_230" x1="19.6836" y1="31.9453" x2="19.6836" y2="20.5391" gradientUnits="userSpaceOnUse"><stop></stop><stop offset="1" stop-color="#666666"></stop></linearGradient><linearGradient id="paint10_linear_1223_230" x1="20.1836" y1="20.5391" x2="20.1836" y2="17.6875" gradientUnits="userSpaceOnUse"><stop></stop><stop offset="1" stop-color="#666666"></stop></linearGradient><linearGradient id="paint11_linear_1223_230" x1="20.1836" y1="34.7969" x2="20.1836" y2="31.9453" gradientUnits="userSpaceOnUse"><stop></stop><stop offset="1" stop-color="#666666"></stop></linearGradient><linearGradient id="paint12_linear_1223_230" x1="19.6836" y1="40.5" x2="19.6836" y2="11.9844" gradientUnits="userSpaceOnUse"><stop></stop><stop offset="1" stop-color="#666666"></stop></linearGradient><linearGradient id="paint13_linear_1223_230" x1="61.3164" y1="34.7969" x2="61.3164" y2="5.42578" gradientUnits="userSpaceOnUse"><stop></stop><stop offset="1" stop-color="#666666"></stop></linearGradient><linearGradient id="paint14_linear_1223_230" x1="61.3164" y1="13.9805" x2="61.3164" y2="5.42578" gradientUnits="userSpaceOnUse"><stop></stop><stop offset="1" stop-color="#666666"></stop></linearGradient><linearGradient id="paint15_linear_1223_230" x1="65.5938" y1="29.0938" x2="65.5938" y2="28.0938" gradientUnits="userSpaceOnUse"><stop></stop><stop offset="1" stop-color="#666666"></stop></linearGradient><linearGradient id="paint16_linear_1223_230" x1="64.168" y1="23.3906" x2="64.168" y2="22.3906" gradientUnits="userSpaceOnUse"><stop></stop><stop offset="1" stop-color="#666666"></stop></linearGradient><linearGradient id="paint17_linear_1223_230" x1="40.5" y1="75.5742" x2="40.5" y2="64.168" gradientUnits="userSpaceOnUse"><stop></stop><stop offset="1" stop-color="#666666"></stop></linearGradient><linearGradient id="paint18_linear_1223_230" x1="76.5" y1="6" x2="8.49999" y2="76" gradientUnits="userSpaceOnUse"><stop stop-color="#16A9C6"></stop><stop offset="1" stop-color="#7AC15C"></stop></linearGradient><linearGradient id="paint19_linear_1223_230" x1="48.5" y1="-8" x2="81" y2="48" gradientUnits="userSpaceOnUse"><stop stop-color="#16A9C6"></stop><stop offset="1" stop-color="#7AC15C"></stop></linearGradient></defs></svg>